<svg id="Layer_1" data-name="Layer 1" xmlns="http://www.w3.org/2000/svg" viewBox="0 0 146.33 39"><defs><style>.cls-1{fill:#fff;}.cls-2{fill:none;stroke:#fff;stroke-linecap:round;stroke-linejoin:round;stroke-width:0.56px;}</style></defs><title>Alumedia logo</title><polygon class="cls-1" points="4.56 27.16 16.54 16.78 24.93 38.08 4.56 27.16"/><polygon class="cls-1" points="17.11 16.7 23.63 32.54 28.82 16.97 17.11 16.7"/><path class="cls-1" d="M11,21l5.51-4.78,0.06,0,4.29,0.09a0.09,0.09,0,0,0,.08,0l4-6.52a0.09,0.09,0,0,0-.11-0.14L6.21,15.67a0.09,0.09,0,0,0,0,.15l4.65,5.12A0.09,0.09,0,0,0,11,21Z"/><polyline class="cls-2" points="33.23 32.02 40.95 12.72 48.94 32.29"/><path class="cls-1" d="M54.15,12.69h0.58V32.48H54.15V12.69Z"/><path class="cls-1" d="M69.47,32.48l-0.58,0V29.93a6.54,6.54,0,0,1-2.48,2.26,6.66,6.66,0,0,1-3,.73,4.29,4.29,0,0,1-3.49-1.36,5.7,5.7,0,0,1-1.14-3.77V18.32h0.58v9.37a5.33,5.33,0,0,0,1,3.48,3.83,3.83,0,0,0,3.13,1.21A6,6,0,0,0,65.73,32a6.29,6.29,0,0,0,2-1.36,4.26,4.26,0,0,0,.64-0.72,2.94,2.94,0,0,0,.35-0.71,3.33,3.33,0,0,0,.15-0.86q0-.48,0-1.15V18.32h0.58V32.48Z"/><path class="cls-1" d="M82.94,32.48V22.83A5.1,5.1,0,0,0,82,19.55a3.5,3.5,0,0,0-2.88-1.12,5.48,5.48,0,0,0-2,.4,5.19,5.19,0,0,0-1.9,1.37,5.45,5.45,0,0,0-.57.71,2.62,2.62,0,0,0-.32.69,3.71,3.71,0,0,0-.14.85q0,0.47,0,1.19v8.84H73.57V18.32h0.58v2.47a6.47,6.47,0,0,1,2.3-2.19,5.75,5.75,0,0,1,2.77-.72,4.28,4.28,0,0,1,2.74.82A3.94,3.94,0,0,1,83.33,21a7.22,7.22,0,0,1,2.4-2.34,5.67,5.67,0,0,1,2.87-.79,4,4,0,0,1,3.23,1.26,5.45,5.45,0,0,1,1.07,3.62v9.73H92.31V22.83a5.1,5.1,0,0,0-.91-3.28,3.5,3.5,0,0,0-2.88-1.12,5.38,5.38,0,0,0-2,.4,5.48,5.48,0,0,0-1.91,1.37,6.13,6.13,0,0,0-.57.69,2.46,2.46,0,0,0-.32.67,3.55,3.55,0,0,0-.14.85q0,0.49,0,1.23v8.84H82.94Z"/><path class="cls-1" d="M108.24,25.55H96.82a10.22,10.22,0,0,0,.36,2.81,6.21,6.21,0,0,0,1.05,2.15A4.59,4.59,0,0,0,100,31.88a6.1,6.1,0,0,0,2.52.49,5.42,5.42,0,0,0,3.2-.87,4.07,4.07,0,0,0,1.62-2.4h0.55a5,5,0,0,1-.57,1.47,4.22,4.22,0,0,1-1.05,1.21,5.31,5.31,0,0,1-1.58.83,6.71,6.71,0,0,1-2.18.32,5.7,5.7,0,0,1-4.67-2,8.3,8.3,0,0,1-1.62-5.43,11,11,0,0,1,.46-3.33A6.68,6.68,0,0,1,98,19.8a5.33,5.33,0,0,1,2-1.44,6.65,6.65,0,0,1,2.58-.48,5.74,5.74,0,0,1,2.62.55A4.7,4.7,0,0,1,107,20a6.66,6.66,0,0,1,1,2.29,12.42,12.42,0,0,1,.3,2.83v0.47Zm-5.68-7.12a5.27,5.27,0,0,0-4.1,1.68A7.48,7.48,0,0,0,96.82,25h10.84a12.08,12.08,0,0,0-.26-2.6,6.17,6.17,0,0,0-.86-2.09,4,4,0,0,0-1.59-1.4A5.28,5.28,0,0,0,102.56,18.43Z"/><path class="cls-1" d="M122.71,32.48V29.21a5.93,5.93,0,0,1-2.06,2.7,5.83,5.83,0,0,1-3.51,1,6,6,0,0,1-2.7-.57,5.35,5.35,0,0,1-1.91-1.57,6.79,6.79,0,0,1-1.14-2.37,11.39,11.39,0,0,1-.37-3,10.33,10.33,0,0,1,.47-3.27,6.73,6.73,0,0,1,1.3-2.36,5.4,5.4,0,0,1,2-1.43,6.57,6.57,0,0,1,2.55-.48,6.34,6.34,0,0,1,3.27.85,4.9,4.9,0,0,1,2.11,2.67v-8.7h0.58V32.45Zm0-7.82a12,12,0,0,0-.07-1.26,9.24,9.24,0,0,0-.24-1.3,5.42,5.42,0,0,0-.5-1.26,4.84,4.84,0,0,0-.83-1.11,4.11,4.11,0,0,0-1.64-1,6.71,6.71,0,0,0-2.13-.33,5.16,5.16,0,0,0-4.18,1.83,7.83,7.83,0,0,0-1.52,5.15,10.49,10.49,0,0,0,.36,2.85,6.66,6.66,0,0,0,1,2.19,4.57,4.57,0,0,0,1.72,1.41,5.48,5.48,0,0,0,2.4.5A5.26,5.26,0,0,0,121,31a5.47,5.47,0,0,0,1.34-2.13,8.11,8.11,0,0,0,.4-2.6V24.66Z"/><path class="cls-1" d="M127.39,12.69H128v2.55h-0.58V12.69Zm0,5.63H128V32.48h-0.58V18.32Z"/><path class="cls-1" d="M141.64,32.48V29.82A5.72,5.72,0,0,1,139.45,32a6.35,6.35,0,0,1-3.16.76,5.53,5.53,0,0,1-3.7-1.12,4,4,0,0,1-1.32-3.2,4.13,4.13,0,0,1,.58-2.3,3.91,3.91,0,0,1,1.55-1.37,7.52,7.52,0,0,1,2.23-.68,23.78,23.78,0,0,1,2.65-.25l3.35-.14V23.05a9.29,9.29,0,0,0-.19-2,3.28,3.28,0,0,0-.69-1.44,3,3,0,0,0-1.37-.87,7.06,7.06,0,0,0-2.2-.29,5.84,5.84,0,0,0-3.2.73,3.51,3.51,0,0,0-1.48,2.2L132,21.25a3.78,3.78,0,0,1,1.65-2.51,6.48,6.48,0,0,1,3.62-.87,7.29,7.29,0,0,1,2.37.33,3.61,3.61,0,0,1,1.54,1,3.82,3.82,0,0,1,.83,1.59,8.61,8.61,0,0,1,.25,2.19v9.51h-0.58Zm0-8.2-3.27.14a23.14,23.14,0,0,0-2.51.24,7.54,7.54,0,0,0-2.06.6,3.29,3.29,0,0,0-1.4,1.21,3.68,3.68,0,0,0-.51,2A3.43,3.43,0,0,0,133,31.3a5,5,0,0,0,3.24,1,6.25,6.25,0,0,0,2.44-.44,5.38,5.38,0,0,0,1.86-1.3,3.83,3.83,0,0,0,.8-1.21,4.34,4.34,0,0,0,.25-1.59V24.27Z"/></svg>