<?xml version="1.0" encoding="UTF-8" standalone="no"?>
<svg width="184px" height="32px" viewBox="0 0 184 32" version="1.1" xmlns="http://www.w3.org/2000/svg" xmlns:xlink="http://www.w3.org/1999/xlink">
    <!-- Generator: Sketch 39.1 (31720) - http://www.bohemiancoding.com/sketch -->
    <title>Page 1</title>
    <desc>Created with Sketch.</desc>
    <defs></defs>
    <g id="Page-1" stroke="none" stroke-width="1" fill="none" fill-rule="evenodd">
        <g id="Homepage_test" transform="translate(-785.000000, -1626.000000)" fill="#FFFFFF">
            <g id="Page-1" transform="translate(785.000000, 1626.000000)">
                <path d="M31.3037629,16.8048514 C31.2015077,18.6215674 30.7651559,20.3637679 29.9650206,22.0127096 C28.4509836,25.1336759 26.0892179,27.4500574 22.8966874,28.9623111 C21.6597291,29.548378 20.3558572,29.9456418 18.9944962,30.1573025 C18.7004536,30.2030175 18.4054684,30.2455325 18.1095409,30.2752473 C17.6854409,30.3186766 17.378204,30.0507864 17.373963,29.6338652 C17.3678371,29.028598 17.3725494,28.4237879 17.3725494,27.8185206 L17.3720781,27.8185206 C17.3720781,27.2324537 17.3800889,26.6463868 17.3692508,26.0603199 C17.3621825,25.671742 17.611459,25.4294523 17.9309477,25.3480795 C19.6669303,24.9055578 21.3996144,24.450236 23.1327697,23.9958284 C23.262827,23.9615421 23.3971254,23.9194843 23.508805,23.8495402 C23.8598656,23.6305652 23.9781424,23.2026723 23.805675,22.8337519 C23.6346214,22.4675743 23.2354961,22.2801427 22.817522,22.3862016 C21.9518868,22.6051766 21.0881365,22.8328376 20.223915,23.0568413 C19.5533658,23.2305585 18.8842302,23.4079329 18.2122673,23.5766214 C17.7504696,23.6922805 17.378204,23.4115901 17.3730206,22.9480395 C17.3687796,22.4945462 17.3701932,22.0405958 17.3725494,21.5871025 C17.3744342,21.239211 17.5431318,21.0211502 17.8941923,20.926063 C18.9553848,20.637601 20.0175196,20.3537106 21.0791833,20.0684487 C22.3844688,19.7178142 23.6897544,19.3671798 24.9950399,19.0156311 C25.3093451,18.9310583 25.5129131,18.7344836 25.5958482,18.4300214 C25.760776,17.8261256 25.1981367,17.2766307 24.573296,17.4357191 C23.9649481,17.5902359 23.3598988,17.7580102 22.7534358,17.9202986 C21.2591902,18.3198481 19.7654158,18.7198548 18.2711701,19.1194043 C18.2212206,19.1326616 18.1707998,19.145919 18.1199078,19.1527763 C17.7221962,19.20672 17.3885709,18.9534587 17.3767904,18.5630521 C17.3626537,18.0780155 17.3664235,17.5925217 17.3758479,17.107485 C17.3819738,16.8094229 17.569049,16.5959337 17.8814693,16.511818 C18.3687131,16.3806158 18.8578418,16.2576423 19.346028,16.1310116 C20.6173855,15.8018633 21.8878006,15.4713435 23.1596294,15.1444809 C23.4734634,15.0640224 23.7222687,14.9090484 23.8325347,14.6013861 C23.941387,14.2982954 23.886254,14.0139478 23.6652508,13.7730295 C23.4352944,13.522511 23.1379531,13.4575957 22.8128098,13.5385113 C22.1469728,13.7044569 21.483492,13.8800027 20.8195399,14.0523484 C19.9741672,14.2722378 19.1292658,14.4948701 18.2829507,14.7111023 C18.1660876,14.740817 18.0374439,14.7641317 17.9201096,14.7485886 C17.607218,14.7065308 17.3810314,14.4578409 17.3753767,14.14835 C17.3664235,13.6633134 17.3668947,13.1778196 17.3753767,12.6927829 C17.3805601,12.3887778 17.5709339,12.1725457 17.8937211,12.0866014 C18.3814361,11.9567706 18.8705648,11.83334 19.3592222,11.7080808 C20.0043254,11.5425923 20.6517847,11.383504 21.2950031,11.2102439 C21.8029806,11.0735559 22.0569694,10.5949194 21.8835596,10.1299974 C21.7327685,9.72679064 21.3044275,9.52335868 20.8313204,9.63993205 C20.2908285,9.77296283 19.7526928,9.91467948 19.2131433,10.0522818 C18.8809317,10.1368546 18.54872,10.2232561 18.2160371,10.3055431 C17.7565955,10.4193736 17.3796177,10.1395975 17.3730206,9.67787554 C17.3683084,9.3505558 17.3720781,9.02277891 17.3720781,8.69500202 C17.3716069,7.83784488 17.373963,6.98068774 17.3706645,6.1235306 C17.3692508,5.7386099 17.1392944,5.44649075 16.7651439,5.33631748 C16.3170116,5.204201 15.8274117,5.47483408 15.7246853,5.91735574 C15.6992393,6.0266147 15.6879299,6.14135947 15.6879299,6.25381849 C15.6851026,7.40080902 15.6869875,8.54779956 15.6855738,9.6947901 C15.6851026,10.0093096 15.5032108,10.2451993 15.1940891,10.314229 C15.0918338,10.3370865 14.9726146,10.332515 14.8703594,10.3069146 C14.0287565,10.0979968 13.1895098,9.87810744 12.3479069,9.66827538 C12.2051266,9.63261764 12.053393,9.60701721 11.9073141,9.61250302 C11.4987645,9.62758898 11.1957686,9.91422233 11.1340385,10.3316007 C11.0930421,10.605891 11.2419484,11.0186979 11.6585088,11.1745862 C11.7909222,11.2244156 11.9313465,11.2545875 12.0694146,11.2902453 C13.0717042,11.5467067 14.0749363,11.8027109 15.077226,12.0591724 C15.1398985,12.0751726 15.2020998,12.0934586 15.2628875,12.1154019 C15.5267719,12.2109463 15.6832177,12.4189498 15.6851026,12.6909543 C15.6884012,13.175991 15.6902861,13.6614848 15.6846314,14.1465214 C15.6799192,14.5501853 15.3001141,14.8381901 14.8972191,14.737617 C14.1687095,14.5561282 13.4430273,14.3636679 12.7164027,14.1748647 C11.9271055,13.9700613 11.1378082,13.7648008 10.3489823,13.5586259 C10.1647344,13.5106251 9.9786016,13.4850247 9.79246883,13.5380541 C9.41737594,13.6445702 9.18129361,13.9371465 9.18270728,14.324353 C9.18364973,14.7234453 9.43528239,15.0119073 9.79576738,15.1092803 C10.3263636,15.2528256 10.8593159,15.3881421 11.3913258,15.5262016 C12.6560862,15.8544356 13.9208466,16.1817553 15.1851358,16.5109037 C15.5102792,16.5954765 15.6841602,16.8176516 15.6855738,17.1454285 C15.6874587,17.599379 15.6874587,18.0528722 15.6855738,18.5068226 C15.6836889,18.972659 15.3156644,19.2528922 14.8500968,19.1363188 C14.4669932,19.0403172 14.0871881,18.9328869 13.7059693,18.8304852 C11.9996737,18.3719633 10.293378,17.9143556 8.58802485,17.4540051 C8.31094619,17.3790324 8.04706175,17.3877183 7.80579597,17.550921 C7.50704109,17.7525244 7.40572831,18.0409863 7.46133253,18.3779062 C7.51316698,18.6915114 7.71108031,18.9022578 8.01925963,18.9996309 C8.30246419,19.0892323 8.59273707,19.1578049 8.88018262,19.2350633 C10.9667546,19.7946155 13.0533265,20.3537106 15.1389561,20.9155485 C15.2374415,20.9420632 15.3373406,20.980921 15.4216894,21.0357791 C15.5936855,21.1473238 15.6851026,21.3105265 15.6855738,21.5153299 C15.6865163,22.0067667 15.6893436,22.4982034 15.6846314,22.9896402 C15.6808616,23.4029042 15.2996428,23.6904519 14.8854385,23.5848501 C13.775239,23.3023311 12.6669243,23.0120406 11.5581385,22.7244929 C11.1260277,22.6129482 10.6943881,22.4972891 10.2608637,22.3907731 C9.7538286,22.265971 9.31512072,22.530204 9.20108495,23.0198121 C9.10919662,23.4152473 9.3528185,23.8225684 9.77126383,23.9523991 C10.0115872,24.0273718 10.2580364,24.0840584 10.5021295,24.1471452 C12.0298319,24.5430375 13.5575343,24.9384727 15.0852367,25.3348221 C15.1540352,25.352651 15.2233048,25.370937 15.2883335,25.398366 C15.5385525,25.5030535 15.6832177,25.6877423 15.6841602,25.9528896 C15.6879299,27.1945103 15.6879299,28.4361309 15.6846314,29.6777516 C15.6832177,30.0530722 15.3660852,30.3223338 14.971201,30.277533 C14.5593527,30.2313608 14.1470333,30.1792457 13.7398973,30.1033587 C12.5109498,29.8747835 11.3295957,29.5003772 10.1991336,28.9769399 C9.02579028,28.4343023 7.9443353,27.7540624 6.95476865,26.9375917 C5.66126368,25.8701453 4.58687703,24.6230388 3.7334936,23.1990151 C2.89801661,21.804249 2.32171185,20.3143956 2.00646419,18.7280835 C1.78546097,17.6153792 1.69592875,16.4939891 1.75059052,15.3643703 C1.8306983,13.7090284 2.19071207,12.1103732 2.84288362,10.5766334 C3.45264516,9.14392378 4.27634159,7.83693058 5.32292613,6.66571106 C7.21771065,4.54636146 9.54837572,3.07433694 12.3168062,2.2615234 C13.0556827,2.04437692 13.809167,1.88894576 14.5758455,1.79522991 C15.0522512,1.7371718 15.5300705,1.70791417 16.0088323,1.67682794 C16.517281,1.64345595 17.0224313,1.66631348 17.5261678,1.69739971 C18.5892451,1.76322938 19.6372433,1.93466081 20.6583819,2.23546582 C24.5167493,3.37148475 27.4453954,5.64489405 29.4495035,9.03420767 C30.2439841,10.3782301 30.767512,11.8237399 31.0705079,13.3446795 C31.2981082,14.48847 31.3692628,15.6446035 31.3037629,16.8048514 M32.756541,13.2166774 C32.4271566,11.4283047 31.8070282,9.7391337 30.877778,8.16013596 C29.2572448,5.40580436 26.9977343,3.28782621 24.1011313,1.81991604 C21.9401063,0.724583501 19.6363009,0.13485939 17.1977259,0.0475436493 C17.1166757,0.0448007465 17.0365679,0.0164574171 16.9559889,0 L16.1370047,0 C16.0564257,0.0164574171 15.9758467,0.0438864455 15.8943253,0.0470864988 C12.3441371,0.184688792 9.17186917,1.32802213 6.37328044,3.44188592 C4.56661447,4.80693723 3.12420328,6.47827937 2.03285263,8.43305479 C1.3745552,9.61296017 0.878358207,10.8536666 0.544732879,12.155174 C0.369438216,12.8395282 0.233254996,13.531654 0.166341441,14.2342943 C0.129586109,14.6224151 0.109323554,15.0123644 0.0786941097,15.4009423 C0.0725682209,15.4786579 0.0984854427,15.5705451 0,15.6176316 L0,16.411702 C0.0909458873,16.4533027 0.0735106654,16.5374184 0.0782228875,16.6096482 C0.0951868872,16.8610809 0.108381109,17.1125137 0.12346022,17.3634893 C0.159273108,17.9618993 0.253046329,18.5529948 0.373679216,19.1390617 C0.713901654,20.7875464 1.29680353,22.3523724 2.15584163,23.8134253 C4.06287793,27.0578223 6.79502432,29.402547 10.352752,30.8329709 C11.9959039,31.4930962 13.7130376,31.8675024 15.4857756,31.9680755 C16.6327305,32.033448 17.781099,32.0032761 18.921928,31.8323018 C19.7823798,31.7033854 20.6291661,31.5241824 21.4589884,31.270921 C23.7217975,30.5797095 25.7381573,29.4656338 27.5042982,27.9305225 C29.6073629,26.1028349 31.132238,23.8957124 32.0775098,21.3141837 C32.4497753,20.2965667 32.7188432,19.2538065 32.849843,18.1808744 C32.9167565,17.6313795 32.9723607,17.0791417 32.9935657,16.5264468 C33.0128859,16.0176383 32.9841413,15.5070012 32.9671773,14.9972785 C32.947386,14.3984113 32.8649221,13.8054872 32.756541,13.2166774" id="Fill-1"></path>
                <path d="M55.5918209,22.4908662 C54.9993229,23.9505411 54.0247032,25.0775265 52.6149023,25.814526 C51.9456075,26.1643119 51.2311657,26.3777877 50.4818162,26.4822152 C49.9065393,26.562153 49.3317277,26.5815599 48.7564508,26.5094772 C47.7902089,26.3884152 46.884008,26.0862223 46.056931,25.5719399 C44.3311002,24.4994786 43.2736331,22.9566314 42.8240234,20.99515 C42.6667066,20.3094402 42.6066656,19.6117165 42.6397114,18.9098343 C42.7211624,17.1692217 43.2834072,15.6074297 44.4521131,14.2891478 C45.489101,13.1201142 46.7760273,12.3683285 48.3249931,12.0693701 C48.8574501,11.9667908 49.394096,11.9279771 49.9316727,11.9695633 C51.6756556,12.1035632 53.1529445,12.7989765 54.3286319,14.0936928 C55.2278512,15.0834438 55.7617045,16.2538637 56.0144354,17.5555111 C56.0605134,17.7925523 56.1024025,18.0314418 56.1242779,18.2717175 C56.155462,18.6131862 56.1666325,18.9569653 56.1861807,19.2998202 C56.1759411,20.3995436 56.0069884,21.4683083 55.5918209,22.4908662 M57.9808959,14.5414373 C57.2175834,12.9768729 56.0996099,11.7242048 54.6064962,10.8125434 C53.3786802,10.063068 52.0442796,9.63565455 50.6014329,9.53584772 C49.76272,9.47762707 48.9365739,9.53723393 48.119271,9.72206138 C46.6666502,10.0496681 45.4337143,10.7737296 44.3683349,11.7939772 C43.8400668,12.2994803 43.374167,12.8581213 42.9520179,13.4528036 C42.9068708,13.5165691 42.8784793,13.6020518 42.7588626,13.6343966 C42.7537428,13.5438311 42.7462959,13.4657415 42.7462959,13.3871899 C42.745365,10.7820468 42.745365,8.17644177 42.745365,5.57129877 C42.745365,4.82598205 42.7542083,4.08066533 42.7416416,3.33581068 C42.7327983,2.81690759 42.4875143,2.41398374 42.0239416,2.17417011 C41.560369,1.93481856 41.0819023,1.93481856 40.6322927,2.21991491 C40.2045584,2.4911492 40.0020945,2.8963834 40.0011636,3.39634167 C39.9993018,5.50476089 40.0002327,7.6131801 40.0002327,9.72159931 C40.0002327,15.5820159 40.0002327,21.4424325 40.0020945,27.302387 C40.0020945,27.4474766 40.0114031,27.5967247 40.0458453,27.7371936 C40.1743052,28.2625656 40.6118136,28.7107722 41.2634218,28.7745377 C41.8717446,28.8336825 42.4069942,28.4986827 42.6401768,27.9391176 C42.7118537,27.766766 42.7472268,27.5879454 42.7462959,27.3998835 C42.7439687,26.6929185 42.7444342,25.9854914 42.7467613,25.2785264 C42.7472268,25.2078299 42.7216279,25.1265058 42.8072678,25.0502644 C42.8701015,25.1292782 42.9296771,25.2008988 42.9845983,25.2752919 C43.604557,26.1204154 44.321326,26.8708149 45.1767945,27.4849041 C46.3850623,28.3531311 47.7380802,28.8387652 49.2190926,28.9630617 C49.6323984,28.9977169 50.0480313,29.0152755 50.4669223,28.9829307 C50.9211863,28.9478134 51.3740541,28.9057652 51.8166822,28.8064204 C54.0423897,28.3064622 55.832916,27.1402009 57.1663856,25.3011677 C58.3485891,23.6709896 58.8908202,21.8208667 58.9853034,19.8325853 C59.0216073,19.06971 58.9918195,18.3063726 58.8829078,17.5467318 C58.7330379,16.4992222 58.4458649,15.4942229 57.9808959,14.5414373" id="Fill-3"></path>
                <path d="M147.952019,15.5657678 C147.892788,14.8217198 147.715096,14.1010074 147.432426,13.4031819 C147.013959,12.3701309 146.370608,11.4824788 145.454699,10.7752293 C144.300904,9.8853335 142.94823,9.45900924 141.477575,9.32348299 C140.702761,9.25212977 139.928428,9.27546542 139.156984,9.38855354 C138.125985,9.5393377 137.171071,9.87097311 136.302836,10.4117318 C135.383556,10.9848014 134.656415,11.731542 134.057848,12.5918195 C134.011619,12.6577875 133.962983,12.7219606 133.915309,12.7870311 C133.894603,12.7820947 133.874377,12.7776071 133.853671,12.7731195 C133.850782,12.6896497 133.845003,12.6066286 133.845003,12.5236076 C133.844521,9.49266641 133.845003,6.46172524 133.843077,3.4303353 C133.843077,3.3015405 133.830556,3.17050188 133.802627,3.04439965 C133.687054,2.5211427 133.201652,2.088087 132.629088,2.01493873 C132.030521,1.93864912 131.547045,2.15629888 131.217183,2.62794815 C131.044788,2.87521623 130.999522,3.14985881 131.000004,3.44200312 C131.002893,9.47336963 131.00193,15.5047361 131.00193,21.5361026 C131.00193,23.2185128 131.000967,24.900923 131.003856,26.583782 C131.004338,26.7309761 131.013006,26.8826577 131.05153,27.0240179 C131.189735,27.5288756 131.649134,27.9444296 132.317525,27.9946909 C132.958469,28.0431573 133.491063,27.7353063 133.728949,27.1981377 C133.813702,27.0074137 133.845484,26.8072657 133.845484,26.6003862 C133.844521,23.5196324 133.844521,20.4388786 133.845003,17.3585736 C133.845003,16.4884233 134.006322,15.6451988 134.395415,14.8535819 C135.388372,12.8345999 137.120026,11.8307185 139.468547,11.7064113 C139.804188,11.6884608 140.144162,11.7171816 140.480766,11.7400685 C141.155899,11.7858422 141.798769,11.9541281 142.402633,12.2381947 C143.557391,12.7820947 144.306683,13.6558351 144.744894,14.7754973 C145.067533,15.5998738 145.168177,16.4574587 145.16914,17.3267114 C145.172992,20.3886172 145.170103,23.4509718 145.172029,26.5128775 C145.172029,26.666803 145.168658,26.8256649 145.205737,26.9742053 C145.345869,27.5400946 145.812009,27.9359031 146.469325,27.9937934 C147.117974,28.051235 147.684758,27.7052392 147.912532,27.1519152 C147.993432,26.9553573 147.999692,26.7538629 147.999692,26.5496761 C147.999692,23.2216542 148.001137,19.8936323 147.997766,16.5656104 C147.997285,16.23218 147.978504,15.8983008 147.952019,15.5657678" id="Fill-5"></path>
                <path d="M166.013247,17.5170061 C165.506259,17.5192554 164.999271,17.5179058 164.491811,17.5179058 L160.0256,17.5179058 L154.135578,17.5179058 C153.836101,17.5179058 153.826669,17.5165562 153.862512,17.2349441 C153.954006,16.5183176 154.138879,15.8228346 154.425151,15.1543431 C154.826968,14.2177353 155.394323,13.3872943 156.181923,12.7026079 C157.04451,11.9526919 158.045281,11.4708922 159.206402,11.3147909 C159.513896,11.2738536 159.826578,11.2419136 160.135959,11.2464122 C162.286531,11.2779024 163.940491,12.157378 165.066712,13.9127304 C165.609543,14.7584666 165.928356,15.6851775 166.100496,16.6595736 C166.13964,16.8791051 166.167937,17.1004361 166.199064,17.3213171 C166.222173,17.4873154 166.197178,17.5161064 166.013247,17.5170061 M167.940745,13.6522617 C167.388482,12.5595526 166.642855,11.6071996 165.663779,10.8280427 C164.329575,9.76637387 162.780785,9.20224985 161.061742,9.04120009 C160.347243,8.974171 159.632743,8.98991608 158.922489,9.0812376 C157.982556,9.20269971 157.082711,9.45956958 156.233801,9.86579286 C154.454863,10.7178271 153.131978,12.0111736 152.207609,13.6828521 C151.429441,15.0895633 151.063938,16.5992924 151.006401,18.1814488 C150.98282,18.8391437 151.024794,19.4954889 151.12572,20.145986 C151.307764,21.3210195 151.682228,22.4375712 152.294858,23.4753974 C153.20555,25.0202155 154.481745,26.207845 156.135233,27.0175924 C157.389262,27.6316509 158.724881,27.9577992 160.135959,27.9942378 C160.955629,28.0153812 161.770111,27.9811919 162.579877,27.8439847 C163.724491,27.6500951 164.795532,27.2758119 165.789229,26.6995417 C166.521178,26.2757739 167.181913,25.7660829 167.790771,25.1938614 C168.101566,24.9014526 168.215226,24.5420147 168.113357,24.1375909 C167.907732,23.3215454 166.896114,23.0340851 166.269335,23.4722484 C166.185859,23.5307302 166.105684,23.5950601 166.028339,23.6611895 C164.752615,24.755698 163.288245,25.4592786 161.565901,25.6464202 C160.803768,25.7287445 160.046351,25.7269451 159.296009,25.5865888 C157.190712,25.1925118 155.638149,24.0831578 154.647754,22.2670743 C154.2266,21.4946653 153.99598,20.6642243 153.867228,19.8067918 C153.851665,19.7051235 153.852608,19.601206 153.844119,19.4648985 L154.169063,19.4648985 C158.67489,19.4648985 163.180245,19.4621993 167.6856,19.4680475 C168.31851,19.4684973 169.001883,19.0006433 168.999996,18.2214863 C168.998581,17.706397 168.96038,17.1949066 168.887751,16.6843159 C168.737777,15.6262459 168.427453,14.6140617 167.940745,13.6522617" id="Fill-7"></path>
                <path d="M90.1898053,17.5133614 C86.1176597,17.5133614 82.0620274,17.5133614 78.006395,17.5124614 C77.9568555,17.5124614 77.9077878,17.4958109 77.8356017,17.4832105 C77.8506995,17.3441562 77.8587201,17.2159023 77.8790077,17.0894484 C78.1120792,15.6242034 78.6626752,14.2917125 79.6992299,13.167128 C80.5999049,12.189248 81.7161946,11.5574286 83.0646121,11.3234214 C83.5892589,11.2325186 84.1190954,11.2163181 84.6550655,11.2635696 C85.4151427,11.3310717 86.1365319,11.5083771 86.8140433,11.8422874 C87.7576525,12.3076016 88.4823444,12.9952227 89.0352994,13.8529491 C89.569854,14.6814245 89.9024763,15.5828022 90.0812902,16.5372815 C90.1327169,16.8113399 90.1624406,17.0885484 90.1997132,17.3648569 C90.2044312,17.400408 90.1954669,17.4377591 90.1898053,17.5133614 M91.5368074,12.9250206 C90.6908618,11.5785793 89.5500382,10.526897 88.0671564,9.82982559 C87.046643,9.34966086 85.9638514,9.09630308 84.8282178,9.0220508 C84.057289,8.97119924 83.2953246,9.00765036 82.5376064,9.13815436 C80.6164181,9.46981454 78.9934102,10.3297909 77.6728291,11.6933328 C76.0035844,13.4173357 75.1850035,15.4891993 75.0255335,17.8081205 C74.9717478,18.5870944 75.0019433,19.3683184 75.1255561,20.1450422 C75.2831388,21.1391227 75.5728268,22.092702 76.0342517,22.9967797 C76.8655715,24.6267298 78.0950942,25.9079191 79.7435795,26.8133469 C81.0735967,27.5437193 82.5092981,27.9352313 84.0440785,27.990133 C84.8900242,28.0202839 85.7303082,27.9838328 86.5672895,27.8461286 C87.988365,27.6116714 89.2782788,27.0892053 90.4459952,26.2854807 C90.9267641,25.9542705 91.3806401,25.5915594 91.7977154,25.190147 C92.148738,24.8521867 92.2605557,24.4431241 92.0704184,23.9944603 C91.8802812,23.5457966 91.5169916,23.3050392 91.006499,23.2712882 C90.651702,23.2474374 90.3601267,23.3761414 90.1039368,23.5975482 C89.5623051,24.0660125 88.9819855,24.4831753 88.3370286,24.8148355 C87.3504852,25.3229011 86.2983609,25.6023597 85.1787686,25.678862 C84.4710617,25.7274635 83.7727909,25.6937125 83.086787,25.5429579 C80.7824933,25.0362423 79.2194046,23.7028514 78.3475097,21.6183874 C78.0983969,21.0225691 77.9521375,20.4011001 77.8634382,19.7656806 C77.820504,19.4614712 77.8143705,19.4619212 78.1309514,19.4619212 C80.3946699,19.4614712 82.6579166,19.4619212 84.9211633,19.4619212 C87.165066,19.4614712 89.4089687,19.4619212 91.6528713,19.4610212 C91.7495913,19.4610212 91.8481985,19.4592211 91.943503,19.4434707 C92.4893809,19.3512178 93.0093096,18.8899537 92.9998735,18.215833 C92.9909092,17.5700632 92.9475032,16.9292435 92.8304956,16.2920239 C92.6106347,15.0949872 92.192144,13.9681526 91.5368074,12.9250206" id="Fill-9"></path>
                <path d="M109.295478,21.2372986 C109.242816,21.9279983 109.017808,22.5705942 108.63338,23.1600942 C108.017242,24.1067431 107.138275,24.7652223 106.083132,25.2235711 C105.329116,25.5507685 104.535365,25.7459071 103.70906,25.8280468 C103.228883,25.8756969 102.749186,25.8952108 102.268531,25.8589059 C101.169822,25.7763124 100.143882,25.4926808 99.2591705,24.8437316 C98.5238258,24.3050584 98.0513093,23.6039209 97.9172621,22.7280664 C97.6869881,21.2300376 98.2614762,19.8745053 99.7781248,19.0617304 C100.439744,18.7073043 101.158811,18.5157962 101.903731,18.3946288 C102.780783,18.2512247 103.664537,18.257578 104.545897,18.2952443 C106.096058,18.3615006 107.618451,18.6092812 109.112599,19.0090884 C109.306967,19.0612766 109.317978,19.0721681 109.319893,19.2686681 C109.322287,19.5436773 109.320372,19.8191404 109.320372,20.0941496 C109.323723,20.0941496 109.326596,20.0941496 109.329947,20.0946034 C109.319415,20.4753505 109.324202,20.8574591 109.295478,21.2372986 M111.97355,15.8242454 C111.963017,15.3359452 111.90126,14.8526369 111.802639,14.3734129 C111.636038,13.5633609 111.354539,12.7927905 110.896384,12.0866612 C110.146199,10.9308055 109.078608,10.1398136 107.758722,9.63880666 C106.661928,9.22266232 105.511995,9.05248334 104.340996,9.01118657 C103.212127,8.97125124 102.088046,9.03750759 100.972103,9.2217547 C99.7580177,9.422339 98.5932431,9.77086555 97.462459,10.2296681 C97.1910134,10.3399441 96.9832402,10.5128459 96.8324371,10.7510965 C96.580141,11.1490884 96.5973757,11.6600792 96.897067,12.0208586 C97.2216527,12.4111358 97.6467739,12.5849452 98.1709943,12.4696773 C98.342862,12.432011 98.5080273,12.3634856 98.6712777,12.2976831 C99.9677059,11.7748933 101.319189,11.4622177 102.72477,11.3882466 C103.269576,11.3596565 103.818212,11.3977766 104.364933,11.4141138 C104.84128,11.4281819 105.306136,11.5212131 105.761897,11.6464649 C107.414508,12.1020907 108.551037,13.0659845 109.037437,14.6624903 C109.262923,15.4040168 109.296914,16.1641496 109.28303,16.9283667 C109.282073,16.9742016 109.258136,17.0195826 109.24138,17.0772166 C109.141802,17.0527108 109.059459,17.0341046 108.978073,17.0127755 C107.737179,16.6851242 106.47522,16.4577651 105.191239,16.3719949 C104.428606,16.3211681 103.661664,16.3111842 102.897116,16.3125457 C101.911869,16.3143609 100.938112,16.4287212 99.9825468,16.6637951 C98.9776714,16.9111219 98.0331172,17.284608 97.1986732,17.881369 C96.2354482,18.5697997 95.5666483,19.4547304 95.2396688,20.5606669 C94.986894,21.4147385 94.9371051,22.2824244 95.0759397,23.1596403 C95.2487649,24.2533239 95.7500057,25.1895353 96.5686513,25.9755353 C97.3801157,26.7538205 98.3610541,27.2620884 99.4506666,27.5933701 C100.022761,27.7671796 100.606824,27.8906161 101.207164,27.936451 C101.567655,27.9641334 101.929583,27.9995306 102.291031,27.9999844 C102.62615,28.0008921 102.961268,27.9618644 103.295907,27.9373586 C103.935982,27.8906161 104.558344,27.7599186 105.167781,27.5729487 C106.736133,27.0910018 108.028253,26.227854 109.070948,25.0220791 C109.11595,24.9703447 109.163824,24.9213332 109.210262,24.8709602 C109.228454,24.8750445 109.246646,24.878675 109.264838,24.8827593 C109.272019,24.9549152 109.285424,25.0266172 109.285424,25.0983193 C109.287339,25.5612062 109.284467,26.024093 109.287818,26.4869798 C109.288775,26.6054244 109.29069,26.7270457 109.319893,26.8409521 C109.567881,27.8216369 110.836542,28.0408274 111.523055,27.4781022 C111.873493,27.1908401 111.999402,26.8132697 111.999402,26.3889567 C111.99988,23.2608401 112.000838,20.1331773 111.998444,17.0055145 C111.998444,16.6116069 111.982167,16.2181531 111.97355,15.8242454" id="Fill-11"></path>
                <path d="M126.076589,9.93014613 C125.933801,9.89110289 125.778118,9.88459568 125.628644,9.88413088 C124.081369,9.88087728 122.534094,9.88273648 120.987296,9.88134208 C120.890831,9.88134208 120.794365,9.87111647 120.673544,9.86367966 L120.673544,9.59827857 C120.673544,8.24617389 120.674499,6.89406922 120.671633,5.54242934 C120.671633,5.40205958 120.66447,5.25843623 120.632474,5.12271448 C120.504012,4.57657388 120.155397,4.20984628 119.60621,4.05832132 C119.059411,3.90772595 118.575649,4.05041971 118.194561,4.46734576 C117.947665,4.73739486 117.849289,5.06182561 117.850722,5.42344041 C117.854542,6.7880947 117.852155,8.15321379 117.852155,9.51786808 C117.852155,9.57550335 117.853587,9.63313861 117.850722,9.69077387 C117.843081,9.85159485 117.818726,9.87437007 117.649194,9.88134208 C117.583292,9.88366608 117.517389,9.88227168 117.451487,9.88227168 C117.023598,9.88273648 116.59571,9.87390527 116.168299,9.88645489 C115.405168,9.90876531 114.84834,10.6491925 115.036974,11.3705629 C115.171644,11.8841675 115.700774,12.2996991 116.214144,12.2908679 C116.628661,12.2834311 117.043178,12.2908679 117.458173,12.2908679 C117.878898,12.2908679 117.852155,12.2722759 117.852155,12.6813003 C117.852155,16.3653092 117.85311,20.0497828 117.8512,23.7342564 C117.850722,24.3840475 117.916624,25.0245426 118.094752,25.6520233 C118.373644,26.6350764 118.89752,27.4587029 119.75855,28.0578308 C120.585196,28.632789 121.52932,28.8819221 122.526453,28.9665157 C122.964848,29.003235 123.40372,29.0120662 123.845935,28.9813894 C124.459591,28.9386277 125.060354,28.847062 125.642015,28.6578882 C125.902282,28.5732945 126.167802,28.4794048 126.399416,28.3404295 C126.897505,28.0420275 127.05462,27.4624213 126.816798,26.9413799 C126.612405,26.4928474 126.057487,26.1400639 125.46532,26.2915888 C125.148702,26.3724641 124.823965,26.4314938 124.499228,26.4710018 C123.873155,26.5472291 123.249947,26.5081859 122.642021,26.3394633 C121.664946,26.0680198 121.055587,25.4419335 120.802483,24.487698 C120.711748,24.1456049 120.672111,23.7970045 120.672588,23.4423617 C120.674021,19.8094809 120.673544,16.1761354 120.673544,12.5432546 L120.673544,12.3117839 C120.789112,12.3038823 120.8851,12.2917975 120.980611,12.2917975 C122.494934,12.2908679 124.009258,12.2913327 125.523104,12.2908679 C125.641538,12.2908679 125.760448,12.2904031 125.878404,12.2834311 C126.460065,12.2481063 126.971048,11.7177689 126.998746,11.1516419 C127.025489,10.6008533 126.621478,10.0788823 126.076589,9.93014613" id="Fill-13"></path>
                <path d="M72.6381232,9.00027449 C72.1165714,8.9947663 71.6084914,9.07233997 71.1114776,9.21647091 C69.7609279,9.60801135 68.6528709,10.3580431 67.700702,11.3329925 C67.0083469,12.0421719 66.4560023,12.8426954 66.0224985,13.7189564 C65.9902624,13.7832186 65.9517714,13.8447267 65.9161674,13.9071529 C65.8983653,13.9034808 65.8810444,13.8998086 65.8637235,13.8961365 C65.8569876,13.8185628 65.8439969,13.7409892 65.8439969,13.6634155 C65.8425535,12.568663 65.8483271,11.4739104 65.8396667,10.3791578 C65.8348553,9.7668308 65.3984647,9.26007741 64.7787611,9.11365138 C64.1475102,8.96401225 63.5177027,9.22335615 63.1996716,9.75902753 C63.0481136,10.0146993 63,10.2910268 63,10.5802067 C63.0009623,15.8827567 63.0004811,21.1853067 63.0019245,26.4883157 C63.0019245,26.6076598 63.0129907,26.7283809 63.0327173,26.8463479 C63.1207652,27.3746751 63.433985,27.7382156 63.9593859,27.9121825 C64.5054756,28.0930347 65.0082631,27.9961824 65.427814,27.606478 C65.7294865,27.3264784 65.8459215,26.9757904 65.8454403,26.5755287 C65.840629,24.5696298 65.8439969,22.563731 65.8425535,20.5578321 C65.8420724,19.6834071 65.897403,18.8144903 66.0706121,17.9542948 C66.2664346,16.9848535 66.5859091,16.0571827 67.1137157,15.2038724 C68.3459059,13.211285 70.1963562,12.1096472 72.5755754,11.7791559 C72.8936066,11.7350903 73.202015,11.667156 73.4608663,11.4729924 C73.8693511,11.1654518 74.0204279,10.7546327 73.9978145,10.267617 C73.9646161,9.54466718 73.3920638,9.00807776 72.6381232,9.00027449" id="Fill-15"></path>
                <g id="Group-19" transform="translate(173.000000, 9.000000)">
                    <path d="M10.5965424,1.30493551 C10.5956234,0.664596735 10.0639789,0.127265102 9.40459276,0.0982804082 C9.04204525,0.0822273469 8.68363326,0.118346735 8.32935679,0.189247755 C7.40208064,0.375195714 6.57221904,0.771617143 5.81266132,1.31117837 C4.56924742,2.19498857 3.65575635,3.34144469 2.99177516,4.68276714 C2.962367,4.74207429 2.93066132,4.80004367 2.90033415,4.8589049 C2.88149455,4.85712122 2.86265494,4.85578347 2.84427484,4.85444571 C2.8373823,4.77774776 2.82543524,4.70149571 2.82543524,4.62524367 C2.82405673,3.61077939 2.82589474,2.59676102 2.82267822,1.58229673 C2.82221872,1.43603551 2.81716419,1.28486918 2.782242,1.14395898 C2.64806725,0.606181429 2.16834659,0.220016122 1.60223945,0.171856939 C0.83578919,0.106752857 0.374908131,0.598154898 0.208568208,1.01642633 C0.128614764,1.21753551 0.124938744,1.42399571 0.124938744,1.63313143 L0.124938744,17.0681498 C0.124938744,17.1417263 0.124938744,17.2157488 0.127236256,17.2893253 C0.155265912,18.2324427 1.16387401,18.7978671 2.0084397,18.443362 C2.54238166,18.219511 2.81119066,17.8034692 2.82221872,17.2393824 C2.83048976,16.8153141 2.82313772,16.3912457 2.82451623,15.9671773 C2.83048976,14.2276498 2.83830131,12.4885682 2.84197733,10.7490406 C2.84335584,10.1885212 2.90171266,9.63424469 2.99223466,9.08130592 C3.15719608,8.07174673 3.46644129,7.10990082 3.98292216,6.21583449 C4.75304844,4.88432224 5.85677357,3.91088245 7.30650411,3.30889265 C7.99759595,3.02216714 8.72085297,2.8585151 9.46294959,2.75952122 C10.0194072,2.68594469 10.4674222,2.28773959 10.5767838,1.76378551 C10.6075704,1.61529469 10.5965424,1.45788551 10.5965424,1.30493551" id="Fill-17"></path>
                </g>
            </g>
        </g>
    </g>
</svg>