<?xml version="1.0" encoding="UTF-8" standalone="no"?>
<svg width="177px" height="18px" viewBox="0 0 177 18" version="1.1" xmlns="http://www.w3.org/2000/svg" xmlns:xlink="http://www.w3.org/1999/xlink">
    <!-- Generator: Sketch 41.2 (35397) - http://www.bohemiancoding.com/sketch -->
    <title>Page 1</title>
    <desc>Created with Sketch.</desc>
    <defs>
        <polygon id="path-1" points="2.35702223 0.0285501747 0.0439448038 0.0285501747 0.0439448038 2.36991891 2.35702223 2.36991891 2.35702223 0.0285501747"></polygon>
        <polygon id="path-3" points="2.35300081 0.0285501747 0.0385323215 0.0285501747 0.0385323215 2.36991891 2.35300081 2.36991891 2.35300081 0.0285501747"></polygon>
        <polygon id="path-5" points="0.0584276634 14.4164248 10.3805769 14.4164248 10.3805769 0.0617826976 0.0584276634 0.0617826976"></polygon>
    </defs>
    <g id="Page-1" stroke="none" stroke-width="1" fill="none" fill-rule="evenodd">
        <g id="CONVERTABLES_SAM-VERSION" transform="translate(-93.000000, -1538.000000)">
            <g id="Page-1" transform="translate(93.000000, 1538.317290)">
                <g id="Group-3" transform="translate(85.697637, 0.000000)">
                    <mask id="mask-2" fill="white">
                        <use xlink:href="#path-1"></use>
                    </mask>
                    <g id="Clip-2"></g>
                    <path d="M1.19985122,0.0285219072 C0.546559545,0.0285219072 0.0439448038,0.185265193 0.0439448038,0.860293085 L0.0439448038,1.52069255 C0.0439448038,2.19494308 0.546559545,2.36991891 1.19985122,2.36991891 C1.85440749,2.36991891 2.35702223,2.19494308 2.35702223,1.52069255 L2.35702223,0.860293085 C2.35702223,0.185265193 1.85440749,0.0285219072 1.19985122,0.0285219072" id="Fill-1" fill="#FFFFFF" mask="url(#mask-2)"></path>
                </g>
                <path d="M87.4450956,3.20364996 L86.3529899,3.20364996 C85.9914259,3.20364996 85.6976365,3.46707156 85.6976365,3.79269646 L85.6976365,12.2248128 C85.6976365,12.5498319 85.9914259,12.8145999 86.3529899,12.8145999 L87.4450956,12.8145999 C87.8065846,12.8145999 88.100374,12.5498319 88.100374,12.2248128 L88.100374,3.79269646 C88.100374,3.46707156 87.8065846,3.20364996 87.4450956,3.20364996" id="Fill-4" fill="#FFFFFF"></path>
                <path d="M59.1500634,3.20364996 C57.7138049,3.20364996 56.7077196,3.82172284 55.9541037,4.81130582 C55.4519415,3.82172284 54.48202,3.20364996 53.1174119,3.20364996 C51.66341,3.20364996 50.8378729,3.98118897 50.2272192,4.81130582 L50.2268129,3.88329689 C50.2268129,3.56163244 49.9618148,3.30087566 49.6339025,3.30087566 L48.6473212,3.30087566 C48.3200862,3.30087566 48.0547495,3.56163244 48.0547495,3.88329689 L48.0547495,12.2307792 C48.0547495,12.5531101 48.3200862,12.8145999 48.6473212,12.8145999 L49.6339025,12.8145999 C49.9618148,12.8145999 50.2268129,12.5531101 50.2268129,12.2307792 L50.2272192,7.46192217 C50.2272192,6.03085856 51.0527563,5.14669782 52.2559818,5.14669782 C53.4585977,5.14669782 54.176727,5.95968855 54.176727,7.4086113 L54.176727,12.2307792 C54.176727,12.5531101 54.4424023,12.8145999 54.7696374,12.8145999 L55.756625,12.8145999 C56.08386,12.8145999 56.3491967,12.5531101 56.3491967,12.2307792 L56.3491967,7.46192217 C56.3491967,5.95968855 57.1928158,5.14669782 58.3780271,5.14669782 C59.5986572,5.14669782 60.2987046,5.94256244 60.2987046,7.42567078 L60.2993818,12.2307792 C60.2993818,12.5531101 60.5643799,12.8145999 60.8912764,12.8145999 L61.8786025,12.8145999 C62.2058376,12.8145999 62.4711743,12.5531101 62.4711743,12.2307792 L62.4711743,6.77207954 C62.4711743,4.49310658 61.214719,3.20364996 59.1500634,3.20364996" id="Fill-6" fill="#FFFFFF"></path>
                <g id="Group-10" transform="translate(149.770636, 0.000000)">
                    <mask id="mask-4" fill="white">
                        <use xlink:href="#path-3"></use>
                    </mask>
                    <g id="Clip-9"></g>
                    <path d="M1.19576656,0.0285219072 C0.542474892,0.0285219072 0.0385323215,0.185265193 0.0385323215,0.860293085 L0.0385323215,1.52069255 C0.0385323215,2.19494308 0.542474892,2.36991891 1.19576656,2.36991891 C1.85038607,2.36991891 2.35300081,2.19494308 2.35300081,1.52069255 L2.35300081,0.860293085 C2.35300081,0.185265193 1.85038607,0.0285219072 1.19576656,0.0285219072" id="Fill-8" fill="#FFFFFF" mask="url(#mask-4)"></path>
                </g>
                <path d="M151.519219,3.20364996 L150.426289,3.20364996 C150.064552,3.20364996 149.770636,3.46707156 149.770636,3.79269646 L149.770636,12.2248128 C149.770636,12.5498319 150.064552,12.8145999 150.426289,12.8145999 L151.519219,12.8145999 C151.880956,12.8145999 152.173373,12.5498319 152.173373,12.2248128 L152.173373,3.79269646 C152.173373,3.46707156 151.880956,3.20364996 151.519219,3.20364996" id="Fill-11" fill="#FFFFFF"></path>
                <path d="M30.7960625,2.97741698 C31.7820721,2.97741698 32.7140375,3.27480884 33.4925591,3.83528583 C33.596621,3.91078739 33.721453,3.95064472 33.8527843,3.95064472 C34.0113145,3.95064472 34.1604488,3.89226309 34.2732708,3.78579854 L35.0659217,3.03579861 C35.18489,2.92244597 35.248401,2.76589226 35.2392876,2.60586106 C35.2298917,2.44649862 35.1490017,2.29750175 35.0166106,2.19718968 C33.8111031,1.28368106 32.351269,0.800912491 30.7960625,0.800912491 C27.0641744,0.800912491 24.0273747,3.67451902 24.0273747,7.20817898 C24.0273747,10.7411702 27.0641744,13.6155123 30.7960625,13.6155123 C32.351269,13.6155123 33.8107498,13.1319413 35.0161868,12.2192352 C35.1482246,12.1195918 35.2295384,11.9698593 35.2382279,11.8112994 C35.2476239,11.6505326 35.1841835,11.493912 35.0651446,11.381295 L34.2725644,10.631295 C34.1593184,10.5254992 34.0102548,10.4671845 33.8513008,10.4671845 C33.7203933,10.4671845 33.5963385,10.5055706 33.4918527,10.5812059 C32.7129778,11.1415491 31.7813657,11.4383391 30.7960625,11.4383391 C28.3324158,11.4383391 26.3274046,9.54130406 26.3274046,7.20817898 C26.3274046,4.87512078 28.3324158,2.97741698 30.7960625,2.97741698" id="Fill-13" fill="#FFFFFF"></path>
                <g id="Group-17" transform="translate(88.901287, 3.203650)">
                    <mask id="mask-6" fill="white">
                        <use xlink:href="#path-5"></use>
                    </mask>
                    <g id="Clip-16"></g>
                    <path d="M7.88565218,5.13276013 C7.88565218,6.98852828 6.57390015,8.23915314 5.08043972,8.23915314 C3.56758186,8.23915314 2.38013035,7.04404538 2.38013035,5.13276013 L2.38013035,5.09574874 C2.38013035,3.22223729 3.5869793,1.99150433 5.08043972,1.99150433 C6.57390015,1.99150433 7.88565218,3.2408123 7.88565218,5.09574874 L7.88565218,5.13276013 Z M9.75693485,0.154380503 L8.71767409,0.154380503 C8.37272766,0.154380503 8.09296235,0.425520186 8.09296235,0.760771373 L8.09296235,1.73381074 C7.3561448,0.723066877 6.31609958,0.0617826976 4.69013751,0.0617826976 C2.34568562,0.0617826976 0.0584276634,1.86265754 0.0584276634,5.09574874 L0.0584276634,5.13276013 C0.0584276634,8.34803873 2.32664475,10.1675579 4.69013751,10.1675579 C6.35311162,10.1675579 7.39308551,9.42531994 8.09296235,8.52477856 L8.11157533,8.50190634 L8.11157533,9.40016051 C8.11157533,11.0722579 6.78299317,12.6034485 4.92996692,12.6034485 C3.79179347,12.6034485 2.74811124,12.090903 2.22587789,11.2288979 C2.04723601,10.9441735 1.66492098,10.8523381 1.37046495,11.0260283 L0.931027308,11.3092972 C0.635858141,11.4829873 0.541366924,11.8567054 0.719366982,12.1435784 C1.57848826,13.5081485 3.10190062,14.4164526 5.03030589,14.4164526 C8.33935265,14.4164526 10.3805769,12.1200824 10.3805769,9.36391152 L10.3805769,0.760771373 C10.3805769,0.425520186 10.1012394,0.154380503 9.75693485,0.154380503 L9.75693485,0.154380503 Z" id="Fill-15" fill="#FFFFFF" mask="url(#mask-6)"></path>
                </g>
                <path d="M145.475677,3.20364996 C143.950472,3.20364996 143.040201,3.93936764 142.407947,4.80447451 L142.407947,3.87567347 C142.407947,3.55373446 142.132804,3.29275511 141.794415,3.29275511 L140.771815,3.29275511 C140.434829,3.29275511 140.159686,3.55373446 140.159686,3.87567347 L140.159686,12.2302809 C140.159686,12.5528869 140.434829,12.8145999 140.771815,12.8145999 L141.794415,12.8145999 C142.132804,12.8145999 142.407947,12.5528869 142.407947,12.1425764 L142.407877,7.1121376 C142.407877,5.97911504 143.373471,5.0606518 144.564705,5.0606518 C145.755868,5.0606518 146.721462,5.97911504 146.721462,7.1121376 L146.721462,12.2302809 C146.721462,12.5528869 146.996535,12.8145999 147.333592,12.8145999 L148.356191,12.8145999 C148.694581,12.8145999 148.969723,12.5528869 148.969723,12.2302809 L148.969723,6.77512542 C148.969723,4.61819408 147.686425,3.20364996 145.475677,3.20364996" id="Fill-18" fill="#FFFFFF"></path>
                <path d="M106.230965,3.20364996 C104.70576,3.20364996 103.795489,3.93936764 103.163235,4.80447451 L103.163235,3.87567347 C103.163235,3.55373446 102.888092,3.29275511 102.549703,3.29275511 L101.527103,3.29275511 C101.190047,3.29275511 100.914974,3.55373446 100.914974,3.87567347 L100.914974,12.2302809 C100.914974,12.5528869 101.190047,12.8145999 101.527103,12.8145999 L102.549703,12.8145999 C102.888092,12.8145999 103.163235,12.5528869 103.163235,12.1425764 L103.163165,7.1121376 C103.163165,5.97911504 104.128759,5.0606518 105.319922,5.0606518 C106.511156,5.0606518 107.47675,5.97911504 107.47675,7.1121376 L107.47675,12.2302809 C107.47675,12.5528869 107.751823,12.8145999 108.08888,12.8145999 L109.111479,12.8145999 C109.449869,12.8145999 109.725011,12.5528869 109.725011,12.2302809 L109.725011,6.77512542 C109.725011,4.61819408 108.441713,3.20364996 106.230965,3.20364996" id="Fill-20" fill="#FFFFFF"></path>
                <path d="M176.762163,3.31363079 C176.736094,3.30142552 176.714514,3.29362215 176.701975,3.28908685 C176.67881,3.28261739 176.65426,3.27674819 176.627994,3.27147925 C176.430997,3.2267266 176.227335,3.20364996 176.016941,3.20364996 C174.913694,3.20364996 173.96019,3.85419753 173.51274,4.79647106 L173.51274,3.87634042 C173.51274,3.55366776 173.253774,3.29275511 172.935279,3.29275511 L171.9728,3.29275511 C171.65556,3.29275511 171.395273,3.55366776 171.395273,3.87634042 L171.395273,12.2310145 C171.395273,12.5528869 171.65556,12.8145999 171.9728,12.8145999 L172.935279,12.8145999 C173.253774,12.8145999 173.51274,12.5528869 173.51274,12.2310145 L173.51274,8.69442081 C173.51274,5.83878779 174.987609,5.32503262 175.838885,5.39492947 C176.00559,5.40860204 176.152034,5.4312118 176.276699,5.44835253 C176.276699,5.44835253 176.323094,5.45368817 176.347975,5.45542225 C176.359854,5.45642268 176.371799,5.45695625 176.383942,5.45695625 C176.581731,5.45695625 176.746786,5.31482821 176.784139,5.12587996 L176.996975,3.75202008 C177.000077,3.73167796 177.001661,3.71073558 177.001661,3.68945973 C177.001661,3.52258768 176.903261,3.37852547 176.762163,3.31363079" id="Fill-22" fill="#FFFFFF"></path>
                <path d="M136.282433,8.40958116 L136.282433,8.44139815 C136.282433,10.187766 135.091387,11.6003408 133.35193,11.6194595 C131.612402,11.6003408 130.421427,10.187766 130.421427,8.44139815 L130.421427,8.40958116 L130.421427,8.37776416 C130.421427,6.63139629 131.612402,5.21882152 133.35193,5.19970279 C135.091387,5.21882152 136.282433,6.63139629 136.282433,8.37776416 L136.282433,8.40958116 Z M133.35193,3.20364996 C130.349782,3.20364996 128.145999,5.52985763 128.145999,8.38504069 L128.145999,8.40958116 L128.145999,8.43412162 C128.145999,11.2893047 130.349782,13.6155123 133.35193,13.6155123 C136.354007,13.6155123 138.557861,11.2893047 138.557861,8.43412162 L138.557861,8.40958116 L138.557861,8.38504069 C138.557861,5.52985763 136.354007,3.20364996 133.35193,3.20364996 L133.35193,3.20364996 Z" id="Fill-24" fill="#FFFFFF"></path>
                <path d="M168.318933,8.40958116 L168.318933,8.44139815 C168.318933,10.187766 167.127887,11.6003408 165.388429,11.6194595 C163.648902,11.6003408 162.457926,10.187766 162.457926,8.44139815 L162.457926,8.40958116 L162.457926,8.37776416 C162.457926,6.63139629 163.648902,5.21882152 165.388429,5.19970279 C167.127887,5.21882152 168.318933,6.63139629 168.318933,8.37776416 L168.318933,8.40958116 Z M165.388429,3.20364996 C162.386352,3.20364996 160.182498,5.52985763 160.182498,8.38504069 L160.182498,8.40958116 L160.182498,8.43412162 C160.182498,11.2893047 162.386352,13.6155123 165.388429,13.6155123 C168.390507,13.6155123 170.594361,11.2893047 170.594361,8.43412162 L170.594361,8.40958116 L170.594361,8.38504069 C170.594361,5.52985763 168.390507,3.20364996 165.388429,3.20364996 L165.388429,3.20364996 Z" id="Fill-26" fill="#FFFFFF"></path>
                <path d="M126.76532,0.800912491 L125.796149,0.800912491 C125.605654,0.800912491 125.439609,0.896153605 125.332071,1.04102645 L121.338242,6.65472997 L117.344348,1.04102645 C117.236876,0.896153605 117.07083,0.800912491 116.880269,0.800912491 L115.911165,0.800912491 C115.591333,0.800912491 115.331399,1.06836481 115.331399,1.39819767 L115.331399,13.0182953 C115.331399,13.3479919 115.591333,13.6155123 115.911165,13.6155123 L116.87742,13.6155123 C117.197319,13.6155123 117.457253,13.3479919 117.457253,13.0182953 L117.457253,4.95784283 L120.984949,9.6147038 C120.9876,9.61824893 120.990316,9.62172588 120.993099,9.62452107 L121.021657,9.66160852 L121.022982,9.66160852 C121.100505,9.75112289 121.211886,9.80845845 121.338242,9.80866298 C121.464532,9.80845845 121.57598,9.75112289 121.653437,9.66160852 L121.654828,9.66160852 L121.683386,9.62452107 C121.686102,9.62172588 121.688819,9.61824893 121.691535,9.6147038 L125.219232,4.95784283 L125.219232,13.0182953 C125.219232,13.3479919 125.479166,13.6155123 125.798998,13.6155123 L126.76532,13.6155123 C127.085152,13.6155123 127.345086,13.3479919 127.345086,13.0182953 L127.345086,1.39819767 C127.345086,1.06836481 127.085152,0.800912491 126.76532,0.800912491" id="Fill-28" fill="#FFFFFF"></path>
                <path d="M121.741702,9.61115012 C121.741302,9.61115012 121.740701,9.61094989 121.7401,9.61094989 C121.7397,9.61094989 121.739099,9.61115012 121.738699,9.61115012 L121.741702,9.61115012 Z" id="Fill-30" fill="#FFFFFF"></path>
                <path d="M70.7212486,8.11812563 C70.7212486,9.91659602 69.4998851,11.1286072 68.1093342,11.1286072 C66.7007224,11.1286072 65.5950943,9.970399 65.5950943,8.11812563 L65.5950943,8.08225698 C65.5950943,6.26659113 66.7187833,5.07385766 68.1093342,5.07385766 C69.4998851,5.07385766 70.7212486,6.28459263 70.7212486,8.08225698 L70.7212486,8.11812563 Z M68.5704165,3.20364996 C67.0568262,3.20364996 66.0884471,3.83625479 65.4020693,4.8158586 L65.4020693,3.88112419 C65.4020693,3.55615688 65.1419801,3.29338877 64.8207364,3.29338877 L63.8530877,3.29338877 C63.5322424,3.29338877 63.2720868,3.55615688 63.2720868,3.88112419 L63.2720868,16.2300835 C63.2720868,16.5549836 63.5322424,16.8191623 63.8530877,16.8191623 L64.8207364,16.8191623 C65.1419801,16.8191623 65.4020693,16.5549836 65.4020693,16.2300835 L65.4020693,11.3831806 C66.0537198,12.2559173 67.0220325,12.9974715 68.5704165,12.9974715 C70.7710487,12.9974715 72.8830367,11.2341309 72.8830367,8.11812563 L72.8830367,8.08225698 C72.8830367,4.94898907 70.7533198,3.20364996 68.5704165,3.20364996 L68.5704165,3.20364996 Z" id="Fill-32" fill="#FFFFFF"></path>
                <path d="M43.3179543,8.42832615 C43.3179543,10.3403156 42.0990091,11.6288286 40.7112114,11.6288286 C39.3053886,11.6288286 38.2019497,10.3975146 38.2019497,8.42832615 L38.2019497,8.39019348 C38.2019497,6.45992324 39.3234137,5.19190472 40.7112114,5.19190472 C42.0990091,5.19190472 43.3179543,6.47906098 43.3179543,8.39019348 L43.3179543,8.42832615 Z M46.0431855,11.8752628 L46.0431193,11.8753342 L46.0431855,11.8752628 C45.8165468,11.8754056 45.633314,11.6776727 45.633314,11.4338807 L45.633314,3.9238862 C45.633314,3.57840703 45.3736735,3.29905306 45.0534635,3.29905306 L44.0876645,3.29905306 C43.7674544,3.29905306 43.5078139,3.57840703 43.5078139,3.9238862 L43.5078139,4.91762082 C42.8224637,3.87618465 41.8560683,3.20364996 40.3451435,3.20364996 C38.1668935,3.20364996 36.0410621,5.05915445 36.0410621,8.39019348 L36.0410621,8.42832615 C36.0410621,11.7410129 38.1491998,13.6155123 40.3451435,13.6155123 C41.9366509,13.6155123 43.0597055,12.8463606 43.542605,11.899542 C43.7855458,12.8198677 44.5714255,13.4939734 45.5034275,13.4939734 L45.5034275,13.493902 L46.0431193,13.4939734 C46.2693604,13.4939734 46.4528582,13.2963833 46.4528582,13.052377 L46.4529245,12.3168592 C46.4529245,12.0729957 46.2696917,11.8752628 46.0431855,11.8752628 L46.0431855,11.8752628 Z" id="Fill-34" fill="#FFFFFF"></path>
                <path d="M81.7617539,8.42832615 C81.7617539,10.3403156 80.5428087,11.6288286 79.155011,11.6288286 C77.7491882,11.6288286 76.6457492,10.3975146 76.6457492,8.42832615 L76.6457492,8.39019348 C76.6457492,6.45992324 77.7672133,5.19190472 79.155011,5.19190472 C80.5428087,5.19190472 81.7617539,6.47906098 81.7617539,8.39019348 L81.7617539,8.42832615 Z M84.4869851,11.8752628 L84.4869188,11.8753342 L84.4869851,11.8752628 C84.2603464,11.8754056 84.0771136,11.6776727 84.0771136,11.4338807 L84.0771136,3.9238862 C84.0771136,3.57840703 83.8174731,3.29905306 83.4972631,3.29905306 L82.531464,3.29905306 C82.211254,3.29905306 81.9516135,3.57840703 81.9516135,3.9238862 L81.9516135,4.91762082 C81.2662633,3.87618465 80.2998679,3.20364996 78.788943,3.20364996 C76.6106931,3.20364996 74.4848617,5.05915445 74.4848617,8.39019348 L74.4848617,8.42832615 C74.4848617,11.7410129 76.5929994,13.6155123 78.788943,13.6155123 C80.3804505,13.6155123 81.503505,12.8463606 81.9864045,11.899542 C82.2293453,12.8198677 83.0152251,13.4939734 83.9472271,13.4939734 L83.9472271,13.493902 L84.4869188,13.4939734 C84.7131599,13.4939734 84.8966578,13.2963833 84.8966578,13.052377 L84.8967241,12.3168592 C84.8967241,12.0729957 84.7134913,11.8752628 84.4869851,11.8752628 L84.4869851,11.8752628 Z" id="Fill-36" fill="#FFFFFF"></path>
                <path d="M158.761396,3.85293918 L156.602287,3.85293918 L156.602287,1.21527437 L156.602358,1.21527437 C156.601791,1.13352243 156.576062,1.05102789 156.522974,0.978929561 C156.384122,0.790042733 156.111026,0.744204936 155.912566,0.876520226 L155.912566,0.876655242 L154.832657,1.59824613 C154.52809,1.796179 154.328141,2.12946502 154.328283,2.50703615 L154.328283,3.85293918 L153.595964,3.85293918 C153.253761,3.85293918 152.974286,4.11783979 152.974286,4.44302487 L152.974286,5.05167521 C152.974286,5.37821044 153.253761,5.64236847 153.595964,5.64236847 L154.328283,5.64236847 L154.328283,10.8416168 C154.328283,12.9173467 155.51047,13.6155123 157.184627,13.6155123 C158.071321,13.6155123 158.98268,13.2890446 158.98268,13.2890446 C158.98268,13.2890446 159.291357,13.2009469 159.212682,12.8584124 C159.186527,12.7406112 159.032153,11.9314627 159.032153,11.9314627 C158.994304,11.7325172 158.908399,11.5764392 158.612905,11.6188341 C158.467249,11.6409767 158.192169,11.6825615 157.822323,11.6825615 C157.052155,11.6804687 156.602287,11.3428622 156.602287,10.501175 L156.602287,5.64236847 L158.761396,5.64236847 C159.104946,5.64236847 159.381586,5.37821044 159.381586,5.05167521 L159.381586,4.44302487 C159.381586,4.11783979 159.104946,3.85293918 158.761396,3.85293918" id="Fill-38" fill="#FFFFFF"></path>
                <path d="M17.4978063,1.88978854 C17.2837333,1.5845584 16.8635642,1.50974776 16.5576866,1.72440679 L-1.42108547e-13,13.3273503 C0.121855903,13.5010596 0.323413269,13.6155123 0.552065007,13.6150994 L0.552890216,13.6155123 L0.552890216,13.6150994 L16.9453287,13.6150994 C17.3179794,13.6150994 17.6200748,13.3127598 17.6200748,12.9393949 L17.6200748,2.26645698 C17.617943,2.13617499 17.578333,2.00506711 17.4978063,1.88978854" id="Fill-40" fill="#71D0EB"></path>
                <path d="M1.07927599,1.72267734 C0.768935237,1.51117551 0.341640315,1.58455231 0.124220139,1.88594072 C0.0423382477,1.99974271 0.00209595285,2.12957888 -1.42108547e-13,2.2581921 L0.000419190571,12.8145999 L8.00912491,6.43469088 L1.07927599,1.72267734 Z" id="Fill-42" fill="#18A9E4"></path>
            </g>
        </g>
    </g>
</svg>