<svg id="Layer_1" data-name="Layer 1" xmlns="http://www.w3.org/2000/svg" viewBox="0 0 40 40"><defs><style>.cls-1{fill:none;stroke:#fff;stroke-linecap:round;stroke-linejoin:round;}</style></defs><title>featuresection_icons</title><line class="cls-1" x1="37.46" y1="8.14" x2="36.08" y2="9.52"/><line class="cls-1" x1="39.23" y1="12.29" x2="37.27" y2="12.29"/><line class="cls-1" x1="33.31" y1="6.37" x2="33.31" y2="8.33"/><path class="cls-1" d="M33.42,13.23c0-.06,0-0.12-0.05-0.18a2,2,0,0,0-.06-0.2,2.06,2.06,0,0,0-.11-0.2s0-.1-0.08-0.15a2.06,2.06,0,0,0-.57-0.57l-0.15-.08-0.2-.11L32,11.68l-0.18-.05a2.05,2.05,0,0,0-.4,0H21.69a2,2,0,0,0,0,4.09h4.78L20.3,21.85l-5.38-5.38a2,2,0,0,0-2.9,0L1.86,26.62a2,2,0,1,0,2.9,2.9l8.71-8.71,5.38,5.38a2,2,0,0,0,2.9,0l7.62-7.62v4.78a2,2,0,1,0,4.09,0V13.63A2,2,0,0,0,33.42,13.23Z"/></svg>