<svg id="Layer_1" data-name="Layer 1" xmlns="http://www.w3.org/2000/svg" viewBox="0 0 40 40"><defs><style>.cls-1{fill:none;stroke:#fff;stroke-linecap:round;stroke-linejoin:round;}</style></defs><title>featuresection_icons</title><path class="cls-1" d="M13.95,35.26l-0.6-1.06a4.08,4.08,0,0,0,1.16-1.43l1,0.23c0.67-.65.84-2.75,0.84-2.75l-1.19-.39A4.43,4.43,0,0,0,15,28l1-.56a4.19,4.19,0,0,0-1.48-2.6l-1.13.54A2.5,2.5,0,0,0,12,24.28l0.36-1.07a5.18,5.18,0,0,0-2.88-.83L9.24,23.52a3.15,3.15,0,0,0-2,.21l-0.59-1a13.55,13.55,0,0,0-2.6,1.48l0.6,1.06a12.5,12.5,0,0,0-1.17,1.53l-1.12-.33a6.62,6.62,0,0,0-.78,2.85l1.11,0.3a3.64,3.64,0,0,0,.32,1.79l-1,.52A4.87,4.87,0,0,0,3.4,34.54L4.47,34A3.13,3.13,0,0,0,6,35.24L5.78,36.37a5.27,5.27,0,0,0,2.7.66l0.31-1.13a2.05,2.05,0,0,0,1.93-.13l0.55,1A6.11,6.11,0,0,0,13.95,35.26ZM5.7,31.61A3.75,3.75,0,1,1,10.81,33,3.75,3.75,0,0,1,5.7,31.61Z"/><path class="cls-1" d="M30.93,25.53l-0.74-1.31a5,5,0,0,0,1.43-1.76l1.23,0.29c0.82-.8,1-3.39,1-3.39l-1.47-.48a5.45,5.45,0,0,0-.19-2.28l1.21-.69a5.16,5.16,0,0,0-1.82-3.21l-1.39.67A3.07,3.07,0,0,0,28.5,12l0.44-1.32a6.38,6.38,0,0,0-3.55-1l-0.26,1.43a3.88,3.88,0,0,0-2.41.26L22,10.05a16.69,16.69,0,0,0-3.21,1.82l0.74,1.31a15.39,15.39,0,0,0-1.44,1.89l-1.39-.41a8.16,8.16,0,0,0-1,3.52l1.37,0.38a4.48,4.48,0,0,0,.39,2.21l-1.28.65a6,6,0,0,0,1.71,3.23L19.25,24a3.86,3.86,0,0,0,1.89,1.52l-0.28,1.39a6.49,6.49,0,0,0,3.32.81l0.38-1.39A2.53,2.53,0,0,0,27,26.15l0.67,1.18A7.53,7.53,0,0,0,30.93,25.53ZM20.77,21a4.62,4.62,0,1,1,6.3,1.73A4.62,4.62,0,0,1,20.77,21Z"/><line class="cls-1" x1="35.73" y1="8.12" x2="34.35" y2="9.5"/><line class="cls-1" x1="37.5" y1="12.27" x2="35.55" y2="12.27"/><line class="cls-1" x1="31.58" y1="6.35" x2="31.58" y2="8.3"/></svg>