<?xml version="1.0" encoding="UTF-8" standalone="no"?>
<svg width="203px" height="45px" viewBox="0 0 203 45" version="1.1" xmlns="http://www.w3.org/2000/svg" xmlns:xlink="http://www.w3.org/1999/xlink">
    <!-- Generator: Sketch 40 (33762) - http://www.bohemiancoding.com/sketch -->
    <title>Group 21</title>
    <desc>Created with Sketch.</desc>
    <defs>
        <polygon id="path-1" points="0 44.1903172 202.430841 44.1903172 202.430841 0.0924507951 0 0.0924507951"></polygon>
    </defs>
    <g id="Page-1" stroke="none" stroke-width="1" fill="none" fill-rule="evenodd">
        <g id="Homepage_V1-HOVERS" transform="translate(-413.000000, -1390.000000)">
            <g id="hootsuite-logo" transform="translate(413.000000, 1390.000000)">
                <g id="Group-21" transform="translate(0.000000, 0.489175)">
                    <path d="M73.9832671,33.1639609 C68.6656981,33.1639609 64.5754383,29.6514121 64.5754383,23.7456088 C64.5754383,17.839224 68.4424458,14.0632777 74.3164104,14.0632777 C79.8572317,14.0632777 83.5761754,17.9124869 83.5761754,23.4467427 C83.5761754,30.0985483 78.8549099,33.1639609 74.0191262,33.1639609 L73.9832671,33.1639609 L73.9832671,33.1639609 Z M74.0937365,29.0920557 C76.3262595,29.0920557 77.7022108,26.8848657 77.7022108,23.5950128 C77.7022108,20.9017293 76.658246,18.1369272 74.0937365,18.1369272 C71.4158656,18.1369272 70.3759495,20.9017293 70.3759495,23.6333886 C70.3759495,26.7354326 71.677869,29.0920557 74.0561422,29.0920557 L74.0937365,29.0920557 L74.0937365,29.0920557 Z" id="Fill-2" fill="#000000"></path>
                    <path d="M94.878699,33.1639609 C89.56113,33.1639609 85.4726054,29.6514121 85.4726054,23.7456088 C85.4726054,17.839224 89.3390345,14.0632777 95.2147342,14.0632777 C100.755556,14.0632777 104.473921,17.9124869 104.473921,23.4467427 C104.473921,30.0985483 99.7503418,33.1639609 94.9157149,33.1639609 L94.878699,33.1639609 Z M94.9903252,29.0920557 C97.2228482,29.0920557 98.5987995,26.8848657 98.5987995,23.5950128 C98.5987995,20.9017293 97.5548347,18.1369272 94.9903252,18.1369272 C92.3130327,18.1369272 91.2731166,20.9017293 91.2731166,23.6333886 C91.2731166,26.7354326 92.5733009,29.0920557 94.954466,29.0920557 L94.9903252,29.0920557 Z" id="Fill-4" fill="#000000"></path>
                    <path d="M106.539236,18.6602336 L106.539236,26.1743319 C106.539236,28.7536509 107.060929,30.5113789 108.10258,31.5922973 C109.03087,32.5295972 110.555464,33.1639609 112.377341,33.1639609 C113.939529,33.1639609 115.313745,32.9395206 116.021675,32.6778674 L115.982924,28.3786147 C115.464123,28.4925792 115.092228,28.5297921 114.311424,28.5297921 C112.639345,28.5297921 112.080057,27.5192293 112.080057,25.3132021 L112.080057,18.6602336 L116.134458,18.6602336 L116.134458,14.473201 L112.080057,14.473201 L112.080057,10.9379757 L112.058657,10.9496047 L112.058657,8.93371221 C109.013519,8.93371221 106.543285,11.4089514 106.543285,14.473201 L106.539236,14.473201 L106.539236,18.6602336 Z" id="Fill-6" fill="#000000"></path>
                    <path d="M164.431738,18.6602336 L164.431738,26.1743319 C164.431738,28.7536509 164.953431,30.5113789 165.993348,31.5922973 C166.923373,32.5295972 168.446231,33.1639609 170.268687,33.1639609 C171.830296,33.1639609 173.206248,32.9395206 173.914177,32.6778674 L173.875426,28.3786147 C173.356625,28.4925792 172.982995,28.5297921 172.202191,28.5297921 C170.530112,28.5297921 169.97256,27.5192293 169.97256,25.3132021 L169.97256,18.6602336 L174.025803,18.6602336 L174.025803,14.473201 L169.97256,14.473201 L169.97256,10.9379757 L169.95116,10.9496047 L169.95116,8.93371221 C166.906021,8.93371221 164.435787,11.4089514 164.435787,14.473201 L164.431738,14.473201 L164.431738,18.6602336 Z" id="Fill-8" fill="#000000"></path>
                    <path d="M119.108225,27.8180372 C120.149298,28.4535638 122.304897,29.1640976 123.981024,29.1640976 C125.690119,29.1640976 126.396892,28.6029968 126.396892,27.6697671 C126.396892,26.6964172 125.838761,26.2481181 123.756615,25.5375843 C119.96364,24.3066514 118.511921,22.2105186 118.550672,20.0806616 C118.550672,16.6413757 121.449482,14.0620567 125.950387,14.0620567 C128.070127,14.0620567 129.927864,14.5853631 131.043547,15.1464638 L130.078241,19.0340488 C129.258686,18.6229626 127.66006,18.0246489 126.134888,18.0246489 C124.760672,18.0246489 123.981024,18.5840053 123.981024,19.481185 C123.981024,20.3783648 124.686062,20.8284083 126.917428,21.6151122 C130.374369,22.7710379 131.788493,24.5642344 131.826087,27.2197236 C131.826087,30.6595909 129.18581,33.1639027 123.981024,33.1639027 C121.599859,33.1639027 119.480119,32.6033834 118.104168,31.8556367 L119.108225,27.8180372 Z" id="Fill-10" fill="#000000"></path>
                    <path d="M151.092413,26.8848075 C151.092413,29.2774806 151.169337,31.2201102 151.242212,32.7539794 L146.334132,32.7539794 L146.073864,30.1746603 L145.962237,30.1746603 C145.255465,31.2962804 143.54637,33.1639027 140.273931,33.1639027 C136.55383,33.1639027 133.876538,30.8473998 133.876538,25.2009238 L133.876538,14.4731429 L139.528985,14.4731429 L139.528985,24.3066514 C139.528985,26.9598148 140.385557,28.564621 142.391936,28.564621 C143.952967,28.564621 144.882414,27.4813768 145.216714,26.5830342 C145.367091,26.2481181 145.439966,25.8381947 145.439966,25.3509383 L145.439966,14.4731429 L151.092413,14.4731429 L151.092413,26.8848075 Z" id="Fill-12" fill="#000000"></path>
                    <mask id="mask-2" fill="white">
                        <use xlink:href="#path-1"></use>
                    </mask>
                    <g id="Clip-15"></g>
                    <polygon id="Fill-14" fill="#000000" mask="url(#mask-2)" points="154.959652 32.7554911 160.613256 32.7554911 160.613256 14.4746547 154.959652 14.4746547"></polygon>
                    <path d="M157.750132,12.0806442 C155.853645,12.0806442 154.626335,10.7345839 154.626335,9.05244462 C154.626335,7.33134805 155.89066,6.02424499 157.823007,6.02424499 C159.75709,6.02424499 160.947961,7.33134805 160.98382,9.05244462 C160.98382,10.7345839 159.75709,12.0806442 157.785992,12.0806442 L157.750132,12.0806442 Z" id="Fill-16" fill="#000000" mask="url(#mask-2)"></path>
                    <path d="M181.146973,25.3880931 C181.33321,27.7819291 183.636873,28.9023862 186.278884,28.9023862 C188.212388,28.9023862 189.773997,28.6418959 191.298591,28.1185895 L192.044115,31.9689616 C190.181751,32.7539212 187.913369,33.1266317 185.459329,33.1266317 C179.287501,33.1266317 175.754794,29.5390757 175.754794,23.7803796 C175.754794,19.1450479 178.654182,14.0230413 184.941106,14.0230413 C190.815649,14.0230413 193.04528,18.6240673 193.04528,23.1465974 C193.04528,24.1158771 192.933654,24.9781698 192.860779,25.425306 L181.146973,25.3880931 Z M187.803478,21.4999266 C187.803478,20.1556107 187.208331,17.7989876 184.64093,17.7989876 C182.22564,17.7989876 181.258599,20.0050147 181.109957,21.4999266 L187.803478,21.4999266 Z" id="Fill-17" fill="#000000" mask="url(#mask-2)"></path>
                    <path d="M201.786764,18.667618 L201.617879,16.1202788 C201.597057,15.7911773 201.617879,15.3876499 201.606311,14.9736564 L201.575658,14.9736564 C201.469237,15.3667176 201.343151,15.812691 201.217066,16.183657 L200.340251,18.6141245 L199.854417,18.6141245 L198.999002,16.1202788 C198.894316,15.7801297 198.789052,15.3667176 198.693621,14.9736564 L198.66181,14.9736564 C198.650821,15.3771838 198.66181,15.7382652 198.64041,16.1202788 L198.482514,18.667618 L197.870016,18.667618 L198.196798,14.4433726 L199.030813,14.4433726 L199.854417,16.7348731 C199.960838,17.05409 200.045859,17.4041238 200.149388,17.7971851 L200.171944,17.7971851 C200.266219,17.4041238 200.361651,17.0325763 200.466337,16.7255699 L201.289941,14.4433726 L202.113545,14.4433726 L202.431072,18.667618 L201.786764,18.667618 Z M197.722531,14.4433726 L197.722531,14.984704 L196.434493,14.984704 L196.434493,18.667618 L195.801173,18.667618 L195.801173,14.984704 L194.523545,14.984704 L194.523545,14.4433726 L197.722531,14.4433726 Z" id="Fill-18" fill="#000000" mask="url(#mask-2)"></path>
                    <path d="M21.9317044,2.07502612 C19.7882509,0.823742399 17.3029786,0.100998133 14.6488211,0.0922763597 C11.962853,0.0858803927 9.44692682,0.809787562 7.28091682,2.07502612 C5.13572828,0.83537143 2.6510343,0.124837646 0.000347024299,0.132396516 L0.000347024299,14.8181181 C-0.0447661346,31.0470121 13.0831631,44.1442081 29.2111174,44.1901427 L29.2111174,14.8181181 L29.2111174,0.132396516 C26.5615869,0.124837646 24.0763145,0.83537143 21.9317044,2.07502612" id="Fill-19" fill="#000000" mask="url(#mask-2)"></path>
                    <path d="M20.8666289,15.9385752 C18.5600741,15.9327607 16.6953969,14.0471134 16.701759,11.7282846 C16.7034941,11.2968476 16.7700071,10.8787839 16.892044,10.4880485 C17.2159333,11.2189331 17.9423708,11.7311919 18.7908453,11.7340991 C19.9435443,11.7375878 20.8810883,10.8008694 20.8839802,9.64203648 C20.8862937,8.78904707 20.3807949,8.05641813 19.653779,7.72615365 C20.0447597,7.60521173 20.4600321,7.54125206 20.8903423,7.54241496 C23.1963187,7.54939238 25.0621527,9.43387683 25.0552122,11.7527056 C25.0476934,14.0721158 23.172027,15.9461341 20.8666289,15.9385752 M8.337895,15.9031067 C6.0324969,15.8967107 4.16608455,14.0122263 4.17360341,11.6933975 C4.17938715,9.37398732 6.05736698,7.49938755 8.36276507,7.50636497 C8.79249683,7.50752787 9.20603412,7.57381335 9.59701483,7.69649962 C8.86884217,8.02269394 8.36045158,8.75125272 8.35755971,9.60540503 C8.35408946,10.764238 9.28527133,11.7073524 10.4379704,11.7108411 C11.2858664,11.7125854 12.0151958,11.2049782 12.3448689,10.4746751 C12.4634355,10.8671549 12.527635,11.2840556 12.5264783,11.7166556 C12.5189594,14.0354843 10.6444498,15.9106656 8.337895,15.9031067 M20.8955476,5.44279345 C17.6265787,5.43349022 14.9354053,7.94884959 14.6439049,11.1625323 L14.6161429,11.1241565 L14.5889594,11.1625323 C14.3148102,7.94710524 11.6392528,5.41604668 8.36854881,5.40674345 C4.90871655,5.39627732 2.09724135,8.20875843 2.08798737,11.6864201 C2.07699827,15.1652447 4.87285737,17.9928435 8.33268963,18.0021467 C9.56289077,18.0062169 10.7086493,17.6474613 11.6780039,17.0334485 L14.5901161,19.9779191 L17.5201579,17.050892 C18.487199,17.6695565 19.6289089,18.0341266 20.8596885,18.0381967 C24.3206775,18.0486629 27.132731,15.2361818 27.1431418,11.7591015 C27.1523957,8.28085842 24.357115,5.45209667 20.8955476,5.44279345" id="Fill-20" fill="#FFFFFF" mask="url(#mask-2)"></path>
                    <polygon id="Fill-1" fill="#000000" mask="url(#mask-2)" points="47.5371236 7.55712569 47.5371236 17.2772511 56.8697638 17.2772511 56.8697638 7.55712569 62.5216328 7.55712569 62.5216328 32.7554911 56.8697638 32.7554911 56.8697638 22.2480803 47.5371236 22.2480803 47.5371236 32.7554911 41.8846761 32.7554911 41.8846761 7.55712569"></polygon>
                </g>
            </g>
        </g>
    </g>
</svg>