<?xml version="1.0" encoding="utf-8"?>
<!-- Generator: Adobe Illustrator 20.1.0, SVG Export Plug-In . SVG Version: 6.00 Build 0)  -->
<svg version="1.1" id="Layer_1" xmlns="http://www.w3.org/2000/svg" xmlns:xlink="http://www.w3.org/1999/xlink" x="0px" y="0px"
	 viewBox="0 0 200 41.8" style="enable-background:new 0 0 200 41.8;" xml:space="preserve">
<style type="text/css">
	.st0{fill:#FFFFFF;}
	.st1{fill:#C39E47;}
	.st2{fill:#282828;}
</style>
<g>
	<path class="st0" d="M120.7,34.5c-0.1-0.1-0.1-0.2-0.1-0.2S120.7,34.3,120.7,34.5z M121.8,26c0-0.1,0.1-0.1,0.1-0.2
		C121.9,25.8,121.8,25.8,121.8,26z"/>
	<path class="st1" d="M144.5,10.7c-3.2,0-5.7,1-7.7,3.2l0.3-1.8c0.2-0.7-0.2-1-0.8-1c-0.7,0-1.2,0.3-1.2,1l-5.3,28
		c-0.2,0.7,0.2,1,0.8,1s1.2-0.3,1.2-1l2-10.3c0.8,1.3,2.3,3.2,6.2,3.2c3,0,5.7-1,7.3-2.8c2-1.8,3.3-4.7,4.2-8.3
		c0.8-3.7,0.3-6.3-1-8.3C149.7,11.7,147.5,10.7,144.5,10.7L144.5,10.7z M136.3,15.5c0-0.2,0.2-0.2,0.2-0.3
		C136.5,15.2,136.3,15.2,136.3,15.5z M134.3,29.2c0,0.2,0.2,0.3,0.2,0.3C134.5,29.3,134.3,29.3,134.3,29.2z M140.7,30.8
		c-4.7,0-6.3-3.2-5.2-9.2s4-9,8.7-9c5,0,6.8,3,5.7,9C148.5,27.8,145.5,30.8,140.7,30.8L140.7,30.8z M158.2,30.7
		c-1.2,0-2.3-0.3-1.8-3.2l5-26.3c0.2-0.8-0.2-1.2-0.8-1.2s-1.2,0.3-1.2,1l-5,26.3c-0.7,3.3,0.7,5.2,3.7,5.2c0.7,0,1-0.3,1.2-1
		C159,31,158.7,30.7,158.2,30.7L158.2,30.7z M179.7,21.2c-0.7,0-1.2,0.3-1.2,1l-0.7,2.2c-1,5.7-4.3,6.3-7.7,6.3
		c-5.7,0-5.8-3.2-5.2-6.3l2.3-12.3c0.2-0.7-0.2-1-0.8-1c-0.7,0-1.2,0.3-1.2,1L163,24.3c-0.3,2.7-0.3,4.3,0.7,5.8
		c1,1.7,3.2,2.7,6.3,2.7s5.7-0.8,7.3-2.7c1.3-1.3,2.2-3.2,2.8-5.8l0.3-2.2C180.7,21.7,180.2,21.2,179.7,21.2L179.7,21.2z
		 M192.7,20.3c-2.8-1-5.2-2-4.8-4.3c0.2-1.2,1.2-3.3,5.3-3.3c2.3,0,3.8,0.7,5,2.2c0.2,0.2,0.7,0.2,0.7,0.2c0.7,0,1-0.3,1.2-1
		c0-0.2,0-0.3-0.2-0.7c-1.2-1.8-3.3-2.8-6.3-2.8c-4.2,0-7.3,2-8,5.3c-0.8,4,2.8,5.2,5.8,6.3c2.7,1,5.2,2,4.8,4.3
		c-0.7,3.3-4.2,4-6.3,4c-2.8,0-4.7-0.8-6-2.7c0.2-0.2,0-0.3-0.2-0.3c-0.3,0-1,0.3-1.2,1c0,0.2,0,0.3,0.2,0.7
		c0.8,1.7,3.3,3.2,7.2,3.2c4.8,0,8.2-2.2,8.8-5.8C199,22.8,195.7,21.7,192.7,20.3L192.7,20.3z M184.2,14.2H182l0.3-2.2
		c0.2-0.7-0.2-1-0.8-1s-1.2,0.3-1.2,1l-0.7,2.2h-2.2c-0.7,0-1.2,0.3-1.2,1c-0.2,0.7,0.2,1,0.8,1h2.2l-0.3,2.2c-0.2,0.7,0.2,1,0.8,1
		c0.7,0,1.2-0.3,1.2-1l0.3-2.2h2.3c0.7,0,1.2-0.3,1.2-1C185.2,14.7,184.8,14.2,184.2,14.2z"/>
	<g>
		<path class="st2" d="M1.5,26.8c1,0.7,3,1.3,5,1.3c1.8,0,2.7-1,2.7-2c0-1-0.7-1.8-2.7-2.8c-2.2-1.3-4-3.2-4-5.7
			c0-4.2,3.7-7.2,9-7.2c2.3,0,4.2,0.3,5,1l-1.2,4c-0.8-0.3-2.2-0.8-3.8-0.8c-1.8,0-2.8,0.8-2.8,2c0,1,0.8,1.7,2.3,2.7
			c2.3,1.3,4.3,3.2,4.3,5.8c0,4.8-4,7.7-9.3,7.7c-2.7,0-4.8-0.8-6-1.3L1.5,26.8L1.5,26.8z M16.8,32.3l5.8-30.5h6l-2.3,12
			c1.7-2,3.8-3.2,6.3-3.2c3.2,0,5,2,5,5.3c0,1-0.2,2.8-0.3,4L35,32.7h-6l2.2-12.2c0.2-0.8,0.2-2,0.2-2.8c0-1.3-0.7-2.2-1.8-2.2
			c-2,0-4,2.7-4.8,6.7l-2,10.7h-5.8L16.8,32.3L16.8,32.3z M59.5,18.8c0,7.7-4.8,14-12,14c-5.3,0-8.3-3.8-8.3-8.3
			c0-7.3,4.8-14,12.2-14C57.2,10.2,59.5,14.5,59.5,18.8z M45.5,24c0,2.2,0.8,4,3,4c3.2,0,5-5.8,5-9.3c0-1.8-0.8-3.7-2.8-3.7
			C47.3,15,45.5,20.7,45.5,24z M58.2,41l4.2-22.2c0.3-2.7,1-5.8,1.2-8h5.3l-0.3,3.3c1.7-2.2,4-3.8,6.3-3.8c4.3,0,6.2,3.7,6.2,7.7
			c0,7.3-4.7,14.7-11.8,14.7c-1.3,0-2.8-0.2-3.7-0.8h-0.2L64,41L58.2,41L58.2,41z M66.7,27.2c0.7,0.7,1.3,0.8,2.7,0.8
			c3.3,0,5.8-5.7,5.8-9.3c0-1.7-0.7-3.3-2.3-3.3c-2.2,0-4,2.7-4.8,6.2L66.7,27.2L66.7,27.2z M81.5,32.3l4-21.5h6l-4.2,21.5H81.5z
			 M89.3,8.7c-1.8,0-2.8-1.3-2.8-3.2c0-2,1.7-3.7,3.3-3.7c1.7,0,3,1.3,3,3.2C92.8,7.2,91.3,8.7,89.3,8.7z M92.7,32.3l3.2-17H93
			l1-4.7h2.8l0.2-1c0.3-2.7,1.3-5.2,3.7-6.8c1.7-1.3,3.8-2,6-2c1.3,0,2.7,0.2,3.2,0.7l-1.2,5c-0.7-0.3-1.2-0.7-2-0.7
			c-2,0-3.2,2-3.7,4l-0.2,1h4.2l-0.8,4.7H102l-3.2,17L92.7,32.3L92.7,32.3z M114.3,10.8l1,9.7c0.2,2.2,0.3,4,0.7,5.2
			c0.3-1.2,1-2.8,1.8-5.2l3.7-9.7h6.3l-7.3,15.8c-2.7,5.3-5.2,9.3-8,12c-2.2,2-4.7,3-6,3.2l-1.7-5.2c1-0.3,2.2-0.8,3.3-1.8
			c1.3-1,2.7-2.2,3.2-3.7c0.2-0.3,0.2-0.7,0.2-1l-3.7-19.3C107.8,10.8,114.3,10.8,114.3,10.8z"/>
	</g>
</g>
</svg>
