<svg width="220px" height="50px" id="Layer_1" data-name="Layer 1" xmlns="http://www.w3.org/2000/svg" xmlns:xlink="http://www.w3.org/1999/xlink" viewBox="0 0 220 50"><defs><style>.cls-1{fill:#fff;}.cls-2{mask:url(#mask);}</style><mask id="mask" x="0" y="0.13" width="52.01" height="49.1" maskUnits="userSpaceOnUse"><g id="mask-2"><polygon id="path-1" class="cls-1" points="52.01 49.23 0 49.23 0 0.13 52.01 0.13 52.01 49.23"/></g></mask></defs><title>thomson_white</title><g id="Page-1"><g id="Homepage_V1-HOVERS" data-name="Homepage V1-HOVERS"><g id="Page-1-2" data-name="Page-1"><g id="Group-15"><path id="Fill-1" class="cls-1" d="M193.21,27.11c0,1.29,0,1.32,1.2,1.32h3.87a0.31,0.31,0,0,1,.3.31v1a0.28,0.28,0,0,1-.3.32,20.48,20.48,0,0,1-3.3.21c-2.54,0-3.88,0-3.88-3.15V22.25c0-3.16,1.34-3.15,3.88-3.15a20.77,20.77,0,0,1,3.3.21,0.28,0.28,0,0,1,.3.32v1a0.31,0.31,0,0,1-.3.31h-3.87c-1.16,0-1.2,0-1.2,1.32v1.41h4.89a0.31,0.31,0,0,1,.3.31v1.11a0.3,0.3,0,0,1-.3.31h-4.89v1.73Zm22.61,3.16a16.53,16.53,0,0,1-3.45-.4,0.33,0.33,0,0,1-.29-0.31v-1.1a0.29,0.29,0,0,1,.29-0.29h0a27.64,27.64,0,0,0,3.46.28c1.36,0,1.78-.49,1.78-1.38,0-1.15-2.74-1.79-4.07-2.34a2.75,2.75,0,0,1-1.8-2.68c0-1.69,1.35-2.92,4.2-2.92a15,15,0,0,1,3.31.4,0.31,0.31,0,0,1,.27.29v1.14a0.26,0.26,0,0,1-.26.28h0a32.2,32.2,0,0,0-3.38-.28c-1.13,0-2,.4-2,1.09a1.7,1.7,0,0,0,1.26,1.24l2.58,1a2.82,2.82,0,0,1,2.12,2.76c0,1.55-1,3.21-4,3.21h0Zm-8.13-7.69c0-1.15-.89-1.64-2.42-1.64-0.32,0-1.71,0-2,.06v3.33c0.25,0,1.73,0,2,0,1.58,0,2.42-.3,2.42-1.65V22.57ZM210,30.13h-1.87a0.39,0.39,0,0,1-.3-0.31l-2.2-3.72h-0.34c-0.39,0-1.63,0-2-.06v3.78a0.29,0.29,0,0,1-.29.31h-1.53a0.31,0.31,0,0,1-.31-0.31V19.76a0.45,0.45,0,0,1,.49-0.46,31,31,0,0,1,3.62-.2c2.35,0,4.53.85,4.53,3.47v0.14a3,3,0,0,1-2.06,3l2.4,4.11a0.21,0.21,0,0,1,0,.12,0.17,0.17,0,0,1-.18.18h0ZM189.22,21h-3v8.82a0.31,0.31,0,0,1-.31.31h-1.51a0.31,0.31,0,0,1-.31-0.31V21H181a0.28,0.28,0,0,1-.3-0.27V19.52a0.29,0.29,0,0,1,.3-0.29h8.23a0.29,0.29,0,0,1,.3.29v1.21a0.28,0.28,0,0,1-.3.27h0Zm-14.64,9.25c-2.46,0-4.58-1.08-4.58-4.35V19.52a0.29,0.29,0,0,1,.31-0.29h1.51a0.29,0.29,0,0,1,.31.29v6.39c0,1.75.81,2.58,2.45,2.58s2.46-.83,2.46-2.58V19.52a0.29,0.29,0,0,1,.3-0.29h1.51a0.29,0.29,0,0,1,.31.29v6.39c0,3.27-2.12,4.35-4.58,4.35h0Zm-12.24-3.15c0,1.29,0,1.32,1.2,1.32h3.87a0.31,0.31,0,0,1,.31.31v1a0.28,0.28,0,0,1-.31.32,20.47,20.47,0,0,1-3.3.21c-2.54,0-3.88,0-3.88-3.15V22.25c0-3.16,1.34-3.15,3.88-3.15a20.76,20.76,0,0,1,3.3.21,0.28,0.28,0,0,1,.31.32v1a0.31,0.31,0,0,1-.31.31h-3.87c-1.16,0-1.2,0-1.2,1.32v1.41h4.89a0.31,0.31,0,0,1,.31.31v1.11a0.31,0.31,0,0,1-.31.31h-4.89v1.73Zm-6.55-4.53c0-1.15-.89-1.64-2.42-1.64-0.32,0-1.71,0-2,.06v3.33c0.24,0,1.72,0,2,0,1.57,0,2.42-.3,2.42-1.65V22.57Zm2.29,7.56h-1.87a0.39,0.39,0,0,1-.31-0.31l-2.2-3.72h-0.34c-0.4,0-1.63,0-2-.06v3.78a0.3,0.3,0,0,1-.29.31h-1.53a0.31,0.31,0,0,1-.3-0.31V19.76a0.45,0.45,0,0,1,.49-0.46,31,31,0,0,1,3.62-.2c2.35,0,4.53.85,4.53,3.47v0.14a3,3,0,0,1-2.06,3l2.4,4.11a0.2,0.2,0,0,1,0,.12,0.17,0.17,0,0,1-.18.18h0Zm-29.7-6.24a2.73,2.73,0,1,0-5.43,0v1.57a2.73,2.73,0,1,0,5.43,0V23.89Zm-2.72,6.36c-2.52,0-4.86-1.41-4.86-4.79V23.89c0-3.38,2.33-4.79,4.86-4.79s4.86,1.41,4.86,4.79v1.57c0,3.38-2.34,4.79-4.86,4.79h0Zm-10.81,0a16.56,16.56,0,0,1-3.46-.4,0.33,0.33,0,0,1-.29-0.31v-1.1a0.29,0.29,0,0,1,.29-0.29h0a27.6,27.6,0,0,0,3.45.28c1.36,0,1.77-.49,1.77-1.38,0-1.15-2.73-1.79-4.07-2.34a2.75,2.75,0,0,1-1.8-2.68c0-1.69,1.36-2.92,4.2-2.92a14.91,14.91,0,0,1,3.31.4,0.31,0.31,0,0,1,.27.29v1.14a0.26,0.26,0,0,1-.26.28h0a32.22,32.22,0,0,0-3.39-.28c-1.13,0-2,.4-2,1.09a1.7,1.7,0,0,0,1.25,1.24l2.59,1a2.82,2.82,0,0,1,2.13,2.76c0,1.55-1,3.21-4,3.21h0Zm26.76-.13h-1.55a0.82,0.82,0,0,1-.93-0.55l-4.15-7a0.17,0.17,0,0,0-.14-0.12s-0.08,0-.08.12v7.22a0.3,0.3,0,0,1-.29.31h-1.3a0.31,0.31,0,0,1-.3-0.31v-10a0.61,0.61,0,0,1,.61-0.61h1.65a0.65,0.65,0,0,1,.67.49l4.31,7.39a0.16,0.16,0,0,0,.12.12,0.12,0.12,0,0,0,.07-0.14V19.52a0.28,0.28,0,0,1,.29-0.29h1.32a0.28,0.28,0,0,1,.29.29v10a0.61,0.61,0,0,1-.61.61h0Zm-33.58,0H106.5a0.29,0.29,0,0,1-.24-0.31V23.19c0-.11,0-0.15,0-0.15a0.32,0.32,0,0,0-.08.09l-2.47,5.49a0.55,0.55,0,0,1-.49.26h-0.8a0.55,0.55,0,0,1-.49-0.26l-2.48-5.49A0.31,0.31,0,0,0,99.33,23s0,0,0,.15v6.64a0.29,0.29,0,0,1-.24.31H97.5a0.24,0.24,0,0,1-.26-0.23V19.84a0.62,0.62,0,0,1,.61-0.61H99.1a0.64,0.64,0,0,1,.57.37l2.93,6a0.31,0.31,0,0,0,.17.22,0.32,0.32,0,0,0,.17-0.22l2.93-6a0.64,0.64,0,0,1,.57-0.37h1.25a0.61,0.61,0,0,1,.61.61V29.9a0.23,0.23,0,0,1-.26.23h0ZM92.73,23.89a2.72,2.72,0,1,0-5.43,0v1.57a2.72,2.72,0,1,0,5.43,0V23.89ZM90,30.25c-2.52,0-4.85-1.41-4.85-4.79V23.89c0-3.38,2.33-4.79,4.85-4.79s4.86,1.41,4.86,4.79v1.57c0,3.38-2.33,4.79-4.86,4.79h0Zm-7.57-.12H80.93a0.31,0.31,0,0,1-.31-0.31V25.38H75.77v4.45a0.31,0.31,0,0,1-.3.31H74a0.31,0.31,0,0,1-.31-0.31V19.52A0.29,0.29,0,0,1,74,19.22h1.52a0.29,0.29,0,0,1,.3.29v4h4.84v-4a0.29,0.29,0,0,1,.31-0.29h1.51a0.29,0.29,0,0,1,.3.29V29.83a0.31,0.31,0,0,1-.3.31h0ZM71.41,21h-3v8.82a0.31,0.31,0,0,1-.31.31H66.54a0.31,0.31,0,0,1-.3-0.31V21H63.18a0.28,0.28,0,0,1-.31-0.27V19.52a0.29,0.29,0,0,1,.31-0.29h8.23a0.29,0.29,0,0,1,.31.29v1.21a0.28,0.28,0,0,1-.31.27h0Z"/><g id="Group-5"><g class="cls-2"><path id="Fill-3" class="cls-1" d="M15.37,9.74A0.88,0.88,0,1,0,15.23,11a0.88,0.88,0,0,0,.15-1.24M24.23,6.4a0.88,0.88,0,1,0-.75,1,0.88,0.88,0,0,0,.75-1M28.52,42a0.88,0.88,0,1,0,1,.75,0.89,0.89,0,0,0-1-.75m8.26-3.58a0.89,0.89,0,0,0-.14,1.24,0.88,0.88,0,0,0,1.24.14,0.88,0.88,0,1,0-1.09-1.39M9.91,36.71A1.88,1.88,0,1,0,11,34.29a1.89,1.89,0,0,0-1.11,2.42m3.56,3.19a1.7,1.7,0,1,0,1.12-2.14,1.71,1.71,0,0,0-1.12,2.14m4.47,2.16a1.37,1.37,0,1,0,1-1.67,1.36,1.36,0,0,0-1,1.67m4.84,1.06a1.13,1.13,0,1,0,.89-1.34,1.14,1.14,0,0,0-.89,1.34M8.77,29a1.89,1.89,0,0,0,.85-2.53,1.87,1.87,0,0,0-2.52-.85A1.89,1.89,0,0,0,8.77,29M8.7,24a1.71,1.71,0,0,0,.65-2.33A1.7,1.7,0,1,0,8.7,24m1.06-5a1.38,1.38,0,0,0,.42-1.9,1.36,1.36,0,0,0-1.89-.42,1.37,1.37,0,0,0,1.46,2.32M12,14.65a1.14,1.14,0,0,0,.27-1.58,1.12,1.12,0,0,0-1.57-.27A1.13,1.13,0,1,0,12,14.65M10,33.83a2.06,2.06,0,0,0,1.06-2.7A2,2,0,1,0,10,33.83m22.87,6.94A0.82,0.82,0,1,0,34,41.2a0.82,0.82,0,0,0-1.08-.43M43.24,20.33a1.89,1.89,0,0,0-.85,2.53,1.88,1.88,0,1,0,.85-2.53m0.07,5a1.72,1.72,0,0,0-.65,2.33,1.71,1.71,0,1,0,.65-2.33m-1.06,5a1.38,1.38,0,0,0-.42,1.89,1.37,1.37,0,1,0,.42-1.89M40,34.72a1.14,1.14,0,0,0-.27,1.58A1.13,1.13,0,1,0,40,34.72M19.53,7.51a0.82,0.82,0,1,0-.43,1.08,0.82,0.82,0,0,0,.43-1.08M42.1,12.65A1.88,1.88,0,1,0,41,15.07a1.87,1.87,0,0,0,1.11-2.43M38.54,9.46a1.7,1.7,0,1,0-1.12,2.14,1.71,1.71,0,0,0,1.12-2.14M34.08,7.3a1.37,1.37,0,1,0-1,1.67,1.36,1.36,0,0,0,1-1.67M29.23,6.24a1.13,1.13,0,1,0-.88,1.33,1.12,1.12,0,0,0,.88-1.33M43.58,19.31a2.05,2.05,0,1,1,1.07-2.7,2,2,0,0,1-1.07,2.7M21,1.69a1.13,1.13,0,1,0-.8,1.39A1.13,1.13,0,0,0,21,1.69M33.15,2.28a1.13,1.13,0,1,0-1.38.8,1.13,1.13,0,0,0,1.38-.8m-12.91,44a1.13,1.13,0,1,0,.8,1.39,1.13,1.13,0,0,0-.8-1.39m11.52,0a1.13,1.13,0,1,0,1.38.8,1.14,1.14,0,0,0-1.38-.8M1,30.64a2.41,2.41,0,1,0,2.53-2.29A2.41,2.41,0,0,0,1,30.64M3.58,36.2a2.18,2.18,0,1,0,2.4-2,2.18,2.18,0,0,0-2.4,2M7.74,41a1.75,1.75,0,1,0,2-1.46,1.75,1.75,0,0,0-2,1.46m5.15,3.71a1.44,1.44,0,1,0,1.71-1.12,1.45,1.45,0,0,0-1.71,1.12M3.54,21A2.42,2.42,0,1,0,1,18.72,2.41,2.41,0,0,0,3.54,21M6,15.11a2.19,2.19,0,1,0-2.4-2,2.19,2.19,0,0,0,2.4,2M9.74,9.8a1.76,1.76,0,1,0-2-1.46,1.76,1.76,0,0,0,2,1.46m4.87-4.06A1.45,1.45,0,1,0,12.9,4.63a1.45,1.45,0,0,0,1.71,1.12m-12,21.56A2.63,2.63,0,1,0,0,24.68a2.62,2.62,0,0,0,2.62,2.63M26,47.12a1.06,1.06,0,1,0,1.05,1.06A1.05,1.05,0,0,0,26,47.12M48.47,28.35A2.42,2.42,0,1,0,51,30.64a2.41,2.41,0,0,0-2.53-2.29M46,34.25a2.19,2.19,0,1,0,2.4,2,2.19,2.19,0,0,0-2.4-2m-3.76,5.31a1.76,1.76,0,1,0,2,1.46,1.75,1.75,0,0,0-2-1.46M37.4,43.61a1.45,1.45,0,1,0,1.71,1.12,1.45,1.45,0,0,0-1.71-1.12M27.06,1.19A1.05,1.05,0,1,0,26,2.24a1.05,1.05,0,0,0,1.05-1.06M51,18.72A2.41,2.41,0,1,0,48.47,21,2.41,2.41,0,0,0,51,18.72m-2.58-5.56a2.18,2.18,0,1,0-2.4,2,2.19,2.19,0,0,0,2.4-2M44.27,8.34a1.75,1.75,0,1,0-2,1.46,1.76,1.76,0,0,0,2-1.46M39.12,4.63A1.44,1.44,0,1,0,37.4,5.75a1.45,1.45,0,0,0,1.71-1.12M49.39,27.31A2.63,2.63,0,1,1,52,24.68a2.62,2.62,0,0,1-2.62,2.63M31.93,30.72a0.9,0.9,0,1,0-1.22-.36,0.89,0.89,0,0,0,1.22.36m1.29-2a0.81,0.81,0,0,0,.33-1.09,0.8,0.8,0,0,0-1.09-.33,0.82,0.82,0,0,0-.33,1.1,0.8,0.8,0,0,0,1.08.32m0.64-2.37a0.7,0.7,0,0,0,.28-1,0.7,0.7,0,0,0-.95-0.29,0.72,0.72,0,0,0-.29,1,0.71,0.71,0,0,0,1,.28m-0.11-2.46A0.62,0.62,0,0,0,34,23a0.6,0.6,0,1,0-.25.83m-5.58,7.89a0.9,0.9,0,1,0-1.58.86A0.88,0.88,0,0,0,27.8,33a0.9,0.9,0,0,0,.36-1.22m-2.45.1a0.8,0.8,0,1,0-1.41.76,0.8,0.8,0,1,0,1.41-.76m-2.36-.63a0.7,0.7,0,1,0-.29,1,0.72,0.72,0,0,0,.29-1m-2-1.3a0.6,0.6,0,0,0-1.05.57,0.58,0.58,0,0,0,.81.24,0.6,0.6,0,0,0,.24-0.81m9.2,1a1,1,0,1,0-1.8,1,1,1,0,1,0,1.8-1m1.73-9.59a0.5,0.5,0,1,0,.87-0.47,0.51,0.51,0,0,0-.68-0.21,0.52,0.52,0,0,0-.19.69m-8.38-3.69a0.9,0.9,0,0,0,1.22.37,0.91,0.91,0,0,0,.36-1.23,0.9,0.9,0,1,0-1.58.86m2.46-.1a0.79,0.79,0,0,0,1.08.32,0.81,0.81,0,0,0,.33-1.09,0.79,0.79,0,0,0-1.08-.32,0.8,0.8,0,0,0-.32,1.09m2.36,0.63a0.7,0.7,0,1,0,.29-1,0.72,0.72,0,0,0-.29,1m2,1.3a0.6,0.6,0,1,0,1.06-.57A0.6,0.6,0,0,0,31,18.63a0.6,0.6,0,0,0-.25.82m-11.6,8.4a0.51,0.51,0,0,0,.48.89,0.51,0.51,0,0,0,.2-0.69,0.5,0.5,0,0,0-.68-0.2m1-9.23a0.9,0.9,0,0,0-.37,1.23,0.89,0.89,0,0,0,1.21.36,0.9,0.9,0,1,0-.85-1.59m-1.3,2.05a0.81,0.81,0,0,0-.33,1.09,0.8,0.8,0,1,0,.33-1.09m-0.64,2.37a0.7,0.7,0,0,0,.67,1.24,0.71,0.71,0,0,0,.28-1,0.7,0.7,0,0,0-1-.28m0.1,2.47a0.61,0.61,0,0,0-.24.82,0.6,0.6,0,0,0,1.06-.58,0.61,0.61,0,0,0-.82-0.24m5-8a1,1,0,1,1-1.39-.42,1,1,0,0,1,1.39.42M26,36.22a1.13,1.13,0,0,0,1.42-.77,1.14,1.14,0,1,0-1.42.77m3.23-.72a1,1,0,1,0-.69-1.27,1,1,0,0,0,.69,1.27m2.92-1.78a0.8,0.8,0,0,0,.45-1.54,0.8,0.8,0,1,0-.45,1.54m2.27-2.52a0.65,0.65,0,0,0,.81-0.44,0.66,0.66,0,0,0-.44-0.81,0.65,0.65,0,0,0-.37,1.25M21.24,33.63a1.15,1.15,0,0,0-.78-1.43,1.15,1.15,0,1,0,.78,1.43m-2.48-2.28a1,1,0,0,0-.69-1.27,1,1,0,1,0,.69,1.27M17,28.42a0.8,0.8,0,0,0-.54-1,0.78,0.78,0,0,0-1,.54,0.8,0.8,0,1,0,1.53.45m-0.75-3.25a0.65,0.65,0,0,0-.44-0.81,0.66,0.66,0,0,0-.81.44,0.65,0.65,0,0,0,.44.8,0.64,0.64,0,0,0,.8-0.44m8.1,9.91a1.32,1.32,0,1,0-1.63.89,1.32,1.32,0,0,0,1.63-.89m11.18-7.59a0.49,0.49,0,0,0,.32.6,0.48,0.48,0,0,0,.6-0.33,0.49,0.49,0,0,0-.33-0.61,0.49,0.49,0,0,0-.6.33M30.78,15.74A1.14,1.14,0,1,0,32.2,15a1.15,1.15,0,0,0-1.42.78M33.27,18a1,1,0,1,0,1.26-.69,1,1,0,0,0-1.26.69M35,20.95a0.8,0.8,0,1,0,1-.54,0.8,0.8,0,0,0-1,.54m0.75,3.26a0.65,0.65,0,1,0,.81-0.44,0.65,0.65,0,0,0-.81.44M16.17,21.27a0.48,0.48,0,0,0-.6.33,0.49,0.49,0,0,0,.32.61,0.49,0.49,0,0,0,.27-0.94M26,13.14a1.15,1.15,0,1,0,.77,1.43A1.14,1.14,0,0,0,26,13.14m-3.23.73a1,1,0,1,0,.69,1.27,1,1,0,0,0-.69-1.27m-2.92,1.77a0.8,0.8,0,1,0,.54,1,0.81,0.81,0,0,0-.54-1m-2.28,2.52a0.66,0.66,0,0,0-.81.44,0.65,0.65,0,1,0,.81-0.44M30.2,15a1.31,1.31,0,1,1-.89-1.65A1.32,1.32,0,0,1,30.2,15M19.09,38.34a1.46,1.46,0,0,0,2.07-.06,1.47,1.47,0,1,0-2.07.06m4.27,1.09a1.29,1.29,0,0,0,1.84-.05,1.31,1.31,0,1,0-1.84.05m4.52-.33a1,1,0,1,0,0-1.46,1,1,0,0,0,0,1.46M32.1,37.5a0.83,0.83,0,1,0,0-1.18,0.84,0.84,0,0,0,0,1.18M14.92,32.38a1.48,1.48,0,0,0-.06-2.08,1.46,1.46,0,0,0-2.07.06,1.47,1.47,0,1,0,2.13,2m-1.58-4.21a1.32,1.32,0,0,0-.05-1.86,1.3,1.3,0,0,0-1.84.06,1.32,1.32,0,0,0,.06,1.85,1.3,1.3,0,0,0,1.84-.05M13,23.63a1,1,0,0,0,0-1.46,1,1,0,0,0-1.45,0A1,1,0,0,0,13,23.63m1.07-4.32a0.84,0.84,0,0,0,0-1.18,0.83,0.83,0,1,0,0,1.18M17.74,36a1.7,1.7,0,0,0-.07-2.4,1.68,1.68,0,0,0-2.39.07,1.7,1.7,0,0,0,.07,2.4A1.68,1.68,0,0,0,17.74,36m17.9-2.18a0.62,0.62,0,0,0,0,.88,0.62,0.62,0,1,0,0-.88M37.09,17a1.47,1.47,0,1,0,2.07-.06,1.46,1.46,0,0,0-2.07.06m1.58,4.21A1.31,1.31,0,0,0,38.73,23a1.31,1.31,0,1,0-.06-1.85M39,25.74a1,1,0,0,0,0,1.46,1,1,0,0,0,1.45,0A1,1,0,1,0,39,25.74m-1.07,4.32a0.83,0.83,0,1,0,1.18,0,0.83,0.83,0,0,0-1.18,0M16.35,14.68a0.62,0.62,0,1,0,0,.88,0.63,0.63,0,0,0,0-.88M32.93,11a1.46,1.46,0,0,0-2.07.06A1.47,1.47,0,1,0,32.93,11m-4.28-1.1a1.31,1.31,0,1,0,.06,1.85,1.32,1.32,0,0,0-.06-1.85m-4.52.33a1,1,0,1,0,0,1.46,1,1,0,0,0,0-1.46m-4.21,1.61A0.83,0.83,0,1,0,20,13a0.84,0.84,0,0,0,0-1.18m16.81,3.85a1.69,1.69,0,1,1-.07-2.4,1.71,1.71,0,0,1,.07,2.4"/></g></g></g></g></g></g></svg>