<?xml version="1.0" encoding="UTF-8" standalone="no"?>
<svg width="154px" height="37px" viewBox="0 0 154 37" version="1.1" xmlns="http://www.w3.org/2000/svg" xmlns:xlink="http://www.w3.org/1999/xlink">
    <!-- Generator: Sketch 39.1 (31720) - http://www.bohemiancoding.com/sketch -->
    <title>Page 1</title>
    <desc>Created with Sketch.</desc>
    <defs>
        <polygon id="path-1" points="0.474290385 27.7436037 18.3377968 27.7436037 18.3377968 0.30077039 0.474290385 0.30077039"></polygon>
        <polygon id="path-3" points="3.32269808 0.407731891 0.120287821 0.407731891 0.120287821 27.4615603 3.32269808 27.4615603 3.32269808 0.407731891"></polygon>
        <polygon id="path-5" points="0 0.0971521552 0 26.4426764 26.2425872 26.4426764 26.2425872 0.0971521552 6.6893884e-21 0.0971521552"></polygon>
    </defs>
    <g id="Page-1" stroke="none" stroke-width="1" fill="none" fill-rule="evenodd">
        <g id="Homepage_test" transform="translate(-1472.000000, -1391.000000)">
            <g id="Page-1" transform="translate(1472.000000, 1391.000000)">
                <g id="Group-3" transform="translate(132.282051, 9.005425)">
                    <mask id="mask-2" fill="white">
                        <use xlink:href="#path-1"></use>
                    </mask>
                    <g id="Clip-2"></g>
                    <path d="M9.37025833,15.5201187 C7.6491109,15.5652021 4.92893782,14.2022975 3.68509167,13.3818796 L3.68509167,10.5411327 C3.68509167,5.71126854 6.23497628,3.37188824 9.29770064,3.37188824 C12.7256814,3.37188824 15.1269955,5.89952871 15.1269955,9.48687576 C15.1269955,13.107416 12.8288417,15.4289612 9.37025833,15.5201187 M9.29770064,0.30077039 C4.16041859,0.30077039 0.474290385,4.18190238 0.474290385,9.96000328 L0.474290385,26.25293 L0.48268141,26.25293 C0.536482692,27.0243013 1.10263013,27.7436533 2.08141859,27.7436533 C3.06909167,27.7436533 3.62882244,27.013402 3.67620705,26.2266727 L3.68509167,26.2266727 L3.68509167,16.7269655 C5.24532885,17.5998982 7.93934167,18.721037 9.91666218,18.5937137 C14.3910532,18.3019104 18.3377968,14.7898674 18.3377968,9.88866259 C18.3377968,4.68772773 14.9848417,0.30077039 9.29770064,0.30077039" id="Fill-1" fill="#FEFEFE" mask="url(#mask-2)"></path>
                </g>
                <path d="M128.301299,2.63797084 C127.06387,2.63797084 126.371363,3.59264806 126.371363,4.5800231 C126.371363,5.56690272 127.06387,6.51761657 128.301299,6.51761657 C129.543171,6.51761657 130.236171,5.56690272 130.236171,4.5800231 C130.236171,3.59264806 129.543171,2.63797084 128.301299,2.63797084" id="Fill-4" fill="#FEFEFE"></path>
                <g id="Group-8" transform="translate(120.435897, 0.087838)">
                    <mask id="mask-4" fill="white">
                        <use xlink:href="#path-3"></use>
                    </mask>
                    <g id="Clip-7"></g>
                    <path d="M1.72346731,0.407583264 C0.697294231,0.407583264 0.120287821,1.19579886 0.120287821,2.01918939 C0.120287821,2.02761155 0.127198077,2.03603372 0.127198077,2.0494101 L0.120287821,2.0494101 L0.120287821,25.4853239 L0.168166026,25.4853239 C0.135589103,25.6037297 0.120287821,25.7246125 0.120287821,25.8544129 C0.120287821,26.6708676 0.697294231,27.4615603 1.72346731,27.4615603 C2.75210833,27.4615603 3.32269808,26.6708676 3.32269808,25.8544129 C3.32269808,25.7246125 3.30986474,25.6037297 3.28617244,25.4853239 L3.32269808,25.4853239 L3.32269808,2.02117107 L3.32269808,2.01918939 C3.32269808,1.19579886 2.75210833,0.407583264 1.72346731,0.407583264" id="Fill-6" fill="#FEFEFE" mask="url(#mask-4)"></path>
                </g>
                <path d="M129.908822,10.9476756 L129.908822,10.9412351 C129.908822,10.1203217 129.33231,9.32764729 128.301201,9.32764729 C127.275028,9.32764729 126.696047,10.1203217 126.696047,10.9412351 L126.696047,10.9476756 L126.696047,25.5730135 L126.740963,25.5730135 C126.712829,25.6914193 126.696047,25.8123021 126.696047,25.9421026 C126.696047,26.7590526 127.275028,27.5492499 128.301201,27.5492499 C129.33231,27.5492499 129.908822,26.7590526 129.908822,25.9421026 C129.908822,25.8123021 129.889572,25.6914193 129.861438,25.5730135 L129.908822,25.5730135 L129.908822,10.9476756 Z" id="Fill-9" fill="#FEFEFE"></path>
                <path d="M116.527901,0.551552751 L116.527901,0.536194684 L113.828952,0.536194684 C110.220317,0.536194684 107.633413,2.94889737 107.633413,6.93852667 L107.633413,25.9637029 L107.642298,25.9637029 C107.694125,26.739533 108.261753,27.4499674 109.237087,27.4499674 C110.213901,27.4499674 110.773138,26.739533 110.829407,25.9637029 L110.841747,25.9637029 L110.841747,12.4401824 L115.815651,12.4401824 C115.866984,12.4486045 115.921279,12.4619809 115.977054,12.4619809 C116.964728,12.4619809 117.520016,11.7034906 117.520016,10.915275 C117.520016,10.1592618 117.00767,9.435451 116.088606,9.38145006 L116.088606,9.3685691 L110.841747,9.3685691 L110.841747,6.86768139 C110.841747,4.63382587 112.150747,3.61226675 114.270221,3.61226675 L116.215458,3.61226675 C116.265311,3.61226675 116.31467,3.62514771 116.370939,3.62514771 C116.422272,3.62514771 116.469657,3.61226675 116.523458,3.61226675 L116.527901,3.61226675 C117.407971,3.53250389 117.90699,2.82355573 117.90699,2.08091891 C117.90699,1.33580498 117.407971,0.631315611 116.527901,0.551552751" id="Fill-11" fill="#FEFEFE"></path>
                <path d="M50.7004526,9.6667633 C50.4487218,9.49831999 50.1338115,9.39675859 49.7631256,9.39675859 C49.5222538,9.39675859 49.3006321,9.44184194 49.1096128,9.51764143 L48.7310295,9.72918641 C48.3203628,10.0467516 48.0977538,10.545641 48.0977538,11.0618702 C48.0977538,11.4834739 48.2478051,11.8981417 48.5217474,12.2048076 C48.5261897,12.2112481 48.5345808,12.2176886 48.5370487,12.2196703 C49.7048821,13.5612717 50.3564205,15.2655216 50.3564205,17.0777734 C50.3564205,17.9759726 50.1900808,18.8360243 49.8973821,19.6371209 C49.1757538,22.8102956 46.3445231,25.1863371 42.9683692,25.1863371 C39.5887603,25.1863371 36.7634526,22.8102956 36.0354077,19.6306804 C35.7486321,18.8335472 35.5808115,17.9759726 35.5808115,17.0777734 C35.5808115,15.2848431 36.2264269,13.5959512 37.3636577,12.2632674 C37.4001833,12.2221474 37.4302923,12.1874679 37.4702731,12.1463479 C37.7096641,11.8461225 37.8488564,11.4572166 37.8488564,11.0618702 C37.8488564,10.2151949 37.2535872,9.39675859 36.185459,9.39675859 C35.8019397,9.39675859 35.4825872,9.50476047 35.2278949,9.68162595 C35.0541513,9.85700515 34.8858372,10.0403111 34.7377603,10.2260942 C33.1558051,12.1399074 32.2633949,14.5441879 32.2633949,17.0777734 C32.2633949,22.9980603 37.0675038,27.8195023 42.9683692,27.8195023 C48.8717026,27.8195023 53.6664333,22.9980603 53.6664333,17.0777734 C53.6664333,14.5506284 52.7947538,12.1527884 51.219709,10.2414522 C51.05485,10.0467516 50.8791321,9.85700515 50.7004526,9.6667633" id="Fill-13" fill="#FEFEFE"></path>
                <path d="M37.8032487,4.57997356 C37.8032487,5.56685317 38.4977295,6.51756702 39.735159,6.51756702 C40.97555,6.51756702 41.6695372,5.56685317 41.6695372,4.57997356 C41.6695372,3.59259852 40.97555,2.63792129 39.735159,2.63792129 C38.4977295,2.63792129 37.8032487,3.59259852 37.8032487,4.57997356" id="Fill-15" fill="#FEFEFE"></path>
                <path d="M46.1639186,6.5174184 C47.4033224,6.5174184 48.0933609,5.56670455 48.0933609,4.57982493 C48.0933609,3.59294531 47.4033224,2.63777267 46.1639186,2.63777267 C44.9255019,2.63777267 44.2315147,3.59294531 44.2315147,4.57982493 C44.2315147,5.56670455 44.9255019,6.5174184 46.1639186,6.5174184" id="Fill-17" fill="#FEFEFE"></path>
                <path d="M103.854638,9.40116784 L103.854638,9.39670904 L103.127087,9.39670904 C100.973062,9.39670904 99.4819269,10.0531425 98.3861577,11.7752276 L98.3175487,11.7752276 L98.3175487,10.9409378 L98.3106385,10.9409378 C98.3106385,10.9280569 98.3175487,10.917653 98.3175487,10.9042767 C98.3175487,10.1225015 97.7711449,9.36896544 96.7874205,9.36896544 C95.8012282,9.36896544 95.25285,10.1225015 95.25285,10.9042767 L95.25285,10.9409378 L95.25285,25.87096 L95.2617346,25.87096 C95.3175103,26.6467901 95.8792154,27.3616833 96.8560295,27.3616833 C97.8392603,27.3616833 98.3945487,26.6467901 98.4488436,25.87096 L98.4636513,25.87096 L98.4636513,18.6437513 C98.4636513,13.8852278 100.286478,12.470304 103.38326,12.470304 L103.854638,12.470304 L103.854638,12.4618818 C104.792459,12.4252206 105.315664,11.696951 105.315664,10.9344974 C105.315664,10.1675849 104.792459,9.43981071 103.854638,9.40116784" id="Fill-19" fill="#FEFEFE"></path>
                <path d="M78.5383712,18.4515773 C78.5383712,14.8657165 80.9510378,12.3777097 84.2649994,12.3777097 C86.2339288,12.3777097 87.142134,12.9628025 88.2438263,14.0626382 L78.6178391,19.4795769 C78.5748968,19.1446719 78.5383712,18.8058036 78.5383712,18.4515773 L78.5383712,18.4515773 Z M93.3440891,19.7020211 C93.3031212,18.8771443 92.713775,18.1013143 91.6698327,18.1013143 C90.6283583,18.1013143 90.0365442,18.8771443 90.0024865,19.7020211 L89.9847173,19.7020211 C89.2704929,22.5640711 87.7872558,24.5254448 84.2649994,24.5254448 C82.3064353,24.5254448 80.6662365,23.6510258 79.6553647,22.1969638 L92.7241404,14.8657165 C91.0888776,11.4641525 88.3469865,9.30609645 84.2649994,9.30609645 C79.4184417,9.30609645 75.1933135,13.038602 75.1933135,18.4515773 C75.1933135,23.8645525 79.4184417,27.5990397 84.2649994,27.5990397 C88.9605186,27.5990397 92.5069609,24.5363441 93.2557365,20.3480507 C93.3139801,20.1687082 93.3505058,19.9789617 93.3505058,19.7842611 C93.3505058,19.7778206 93.3440891,19.7669213 93.3440891,19.7560221 C93.3505058,19.7411594 93.3549481,19.7213425 93.3588968,19.7020211 L93.3440891,19.7020211 Z" id="Fill-21" fill="#FEFEFE"></path>
                <path d="M64.4688917,24.5255439 C61.4041929,24.5255439 58.8533212,22.1822002 58.8533212,17.3518406 L58.8533212,14.5135709 C60.0971673,13.6951346 62.8173404,12.3342117 64.5379942,12.3773134 C68.0034878,12.4659938 70.3001609,14.7944749 70.3001609,18.4169968 C70.3001609,22.0023622 67.8939109,24.5255439 64.4688917,24.5255439 M65.0853853,9.30619554 C63.1120135,9.17441342 60.4135583,10.2975339 58.8533212,11.1660078 L58.8533212,2.15181372 L58.8409814,2.15181372 C58.8010006,1.36805692 58.2432442,0.640282741 57.2471801,0.640282741 C56.270366,0.640282741 55.7086609,1.35517596 55.6583147,2.12803349 L55.6464686,2.12803349 L55.6464686,17.9394105 C55.6464686,23.7219702 59.3281545,27.5991388 64.4688917,27.5991388 C70.1535647,27.5991388 73.5040519,23.2077227 73.5040519,18.0107512 C73.5040519,13.1075647 69.5597763,9.59998048 65.0853853,9.30619554" id="Fill-23" fill="#FEFEFE"></path>
                <g id="Group-27" transform="translate(0.000000, 1.078681)">
                    <mask id="mask-6" fill="white">
                        <use xlink:href="#path-5"></use>
                    </mask>
                    <g id="Clip-26"></g>
                    <path d="M24.4888628,1.7300614 C24.4888628,1.7300614 6.02761923,7.74992799 1.79508718,24.7686472 C5.82031154,18.0963105 11.1204782,18.2672309 16.2444333,17.9367848 C12.1841641,7.68750488 24.4888628,1.7300614 24.4888628,1.7300614 L24.4888628,1.7300614 Z M26.2425872,25.1877738 C26.2425872,25.8808685 25.6872987,26.4426764 24.9977538,26.4426764 L1.24720256,26.4426764 C0.560619231,26.4426764 -9.87179483e-05,25.8808685 -9.87179483e-05,25.1877738 L-9.87179483e-05,1.3520548 C-9.87179483e-05,0.658464709 0.560619231,0.0971521552 1.24720256,0.0971521552 L24.9977538,0.0971521552 C25.6872987,0.0971521552 26.2425872,0.658464709 26.2425872,1.3520548 L26.2425872,25.1877738 Z" id="Fill-25" fill="#FEFEFE" mask="url(#mask-6)"></path>
                </g>
                <path d="M151.960833,25.6378147 L152.246621,25.6378147 C152.414935,25.6378147 152.532903,25.6095756 152.532903,25.4237926 C152.532903,25.2340462 152.347807,25.2122476 152.210589,25.2122476 L151.960833,25.2122476 L151.960833,25.6378147 Z M151.573365,24.8991412 L152.251063,24.8991412 C152.705166,24.8991412 152.920371,25.0933464 152.920371,25.4455911 C152.920371,25.7393761 152.731326,25.9033606 152.479596,25.9340767 L152.91198,26.642034 L152.50082,26.642034 L152.109403,25.9509211 L151.960833,25.9509211 L151.960833,26.642034 L151.573365,26.642034 L151.573365,24.8991412 Z M152.206147,26.9467183 C152.87348,26.9467183 153.329063,26.4909305 153.329063,25.7695968 C153.329063,25.0482631 152.87348,24.5904936 152.206147,24.5904936 C151.536839,24.5904936 151.082737,25.0482631 151.082737,25.7695968 C151.082737,26.4909305 151.536839,26.9467183 152.206147,26.9467183 L152.206147,26.9467183 Z M152.206147,24.1778075 C153.079801,24.1778075 153.792051,24.8902236 153.792051,25.7695968 C153.792051,26.6464928 153.079801,27.3613861 152.206147,27.3613861 C151.330025,27.3613861 150.619749,26.6464928 150.619749,25.7695968 C150.619749,24.8902236 151.330025,24.1778075 152.206147,24.1778075 L152.206147,24.1778075 Z" id="Fill-28" fill="#FEFEFE"></path>
            </g>
        </g>
    </g>
</svg>